<svg xmlns="http://www.w3.org/2000/svg" viewBox="0 0 380.59 75.9"><defs><style>.cls-1{fill:#fff;}.cls-2{fill:#0093b5;}</style></defs><title>Azam Logo</title><g id="Layer_2" data-name="Layer 2"><g id="Layer_1-2" data-name="Layer 1"><path class="cls-1" d="M225.36,42.79s-1.57,12.59-37.82,23.8a191.49,191.49,0,0,1-27.13,5.88c-25.51,3.84-50.74,4-51,2.67-.44-1.72,24.68-.69,46.93-5.18a96.9,96.9,0,0,0,12-3.17c40.9-14,29.18-32.73-13.93-41.43-22.22-4.49-52.78-6.3-88.78-3.43C12.63,26.1,2.53,43.87,2.53,43.87s-9.74-11.6,9-23.39C47.4-2.22,113.63-2.64,162.69,3.08c2.16.25,4.25.51,6.26.8,69.56,9.77,56.41,38.91,56.41,38.91"/><path class="cls-1" d="M70.54,55.74V43.94c0-3.49,0-7.5-1.71-9.91A6.26,6.26,0,0,0,63.5,31.7c-2.35,0-4.31.84-6.56,1.75a3.78,3.78,0,0,1-1.42.39c-.53,0-.82-.46-1.18-1.1l-.71,11.6.71.12c1.11-4.73,3.42-7.84,6.3-7.84a2.85,2.85,0,0,1,2.71,1.7,9.51,9.51,0,0,1,.5,4.33v.52C59.61,44.34,52,47.12,52,57.16c0,5.32,2.67,8.16,5.34,8.16,2.18,0,5.24-1.75,6.52-5.18a12.08,12.08,0,0,0,1.24,4.34H72.5V62.86c-2.18-.38-2-4.14-2-7.12m-10,3.11c-1.22,0-1.93-2-1.93-4a10.17,10.17,0,0,1,2.17-6.1,5.49,5.49,0,0,1,3.07-1.87c0,3.94-.36,12-3.31,12m88.94-1.17v-15c0-2.67,0-6-1-8.16-.9-1.89-2.29-2.86-3.63-2.86-2.64,0-5.16,2.91-6.8,6.48-.61-4.21-2.25-6.48-4.67-6.48s-5.05,3.25-6.77,6.48a30.27,30.27,0,0,0-1-6.15l-7.58.91v1.62c1.32.13,1.93,1.81,1.93,5.17v18c0,3.36-.61,5-1.93,5.18v1.62H128.7V62.86c-1.31-.13-1.92-1.82-2-5.18V49.13a30.66,30.66,0,0,1,.51-6.87c.43-1.74,1.46-3.56,2.56-3.56,2,0,1.71,4.28,1.71,6.6V57.68c0,3.36-.75,5-2.06,5.18v1.62h10.67V62.86c-1.31-.13-2-1.82-2-5.18V50a30.23,30.23,0,0,1,.68-8.17c.46-1.62,1.34-3.17,2.41-3.17,1.81,0,1.68,4.21,1.68,6.41V57.68c0,3.36-.72,5-2,5.18v1.62h10.69V62.86c-1.32-.13-2-1.82-2-5.18M114,55.74V43.94c0-3.49,0-7.5-1.71-9.91-1.34-1.94-3.66-2.33-5.34-2.33-2.34,0-4.3.84-6.55,1.75a3.78,3.78,0,0,1-1.42.39c-.53,0-.81-.46-1.17-1.1l-.71,11.6.71.12c1.11-4.73,3.42-7.84,6.3-7.84a2.84,2.84,0,0,1,2.7,1.7,9.51,9.51,0,0,1,.5,4.33v.52c-4.24,1.17-11.85,3.95-11.85,14,0,5.32,2.67,8.16,5.34,8.16,2.17,0,5.23-1.75,6.51-5.18a12.08,12.08,0,0,0,1.25,4.34h7.4V62.86c-2.17-.38-2-4.14-2-7.12m-10,3.11c-1.21,0-1.93-2-1.93-4a10.17,10.17,0,0,1,2.18-6.1,5.47,5.47,0,0,1,3-1.87c0,3.94-.36,12-3.3,12M86,60.4c-1.06,0-1.77-.13-2.52-.19l9.4-27.67H79.69a2.64,2.64,0,0,1-1.18-.19,1.5,1.5,0,0,1-1-1.1l-1.4,11.53.72.33c.71-4.22,3.23-6.49,4.91-6.49a10.06,10.06,0,0,1,2,.26l-9.44,27.6H88.69a2.26,2.26,0,0,1,2.46,1.3L93.07,53.4,92.32,53C91.26,58.39,88.51,60.4,86,60.4"/><path class="cls-1" d="M380.59,9.78v58c0,4.74-3.65,7.76-8,7.76H165.52c-.64,0-1.24.33-1.83.17a177.3,177.3,0,0,0,27.13-6.2c36.25-12.25,37.82-25.35,37.82-25.35s13.15-32.69-56.41-41.84H372.59c4.35,0,8,2.77,8,7.51"/><path class="cls-2" d="M270,32.44c0,7.87-5,12.44-13.61,12.44h-7.52V55h-6.59V20.6h14.11C265,20.6,270,24.88,270,32.44m-6.24.2c0-4.23-2.8-6.29-7.72-6.29h-7.17V39.08H256c4.92,0,7.72-2.11,7.72-6.44"/><path class="cls-2" d="M298.7,44.09H279.29a7.33,7.33,0,0,0,7.52,6,9.73,9.73,0,0,0,7.07-3l3.44,3.59a14.57,14.57,0,0,1-11.05,4.52c-8.16,0-13.52-5.41-13.52-13.32s5.51-13.42,13.37-13.42c9.24,0,13.22,6.05,12.58,15.58m-5.8-4.27c-.15-3.89-2.75-6.34-6.73-6.34-3.79,0-6.44,2.45-7,6.34Z"/><path class="cls-2" d="M312.12,33.43c-2.07,0-3.54.69-3.54,2.31,0,4.42,13.91,2.11,13.91,11.55,0,5.35-4.77,8-10.37,8a16.87,16.87,0,0,1-10.86-3.69l2.21-4.47a14.69,14.69,0,0,0,8.89,3.24c2.22,0,3.89-.73,3.89-2.45,0-4.87-13.71-2.22-13.67-11.55,0-5.41,4.62-7.92,9.93-7.92a17.77,17.77,0,0,1,9.63,2.8l-2.31,4.62a16.11,16.11,0,0,0-7.71-2.4"/><path class="cls-2" d="M343.47,55V51.81c-1.82,2.31-4.76,3.49-8.5,3.49-5.65,0-9.19-3.49-9.19-8.16,0-4.87,3.59-7.87,10-7.91h7.66v-.69c0-3-2-4.87-5.94-4.87a15.45,15.45,0,0,0-7.82,2.46l-2.31-4.42a21.13,21.13,0,0,1,11.55-3.25c6.88,0,10.77,3.49,10.82,9.34l0,17.2Zm-.05-9.14V43.5h-6.63c-3.39,0-5,.94-5,3.25s1.76,3.63,4.66,3.63c3.69,0,6.59-2,6.93-4.52"/></g></g></svg>