<svg id="Layer_1" data-name="Layer 1" xmlns="http://www.w3.org/2000/svg" xmlns:xlink="http://www.w3.org/1999/xlink" viewBox="0 0 421.17 134.94"><defs><style>.cls-1{fill:#ffcb05;}.cls-2{font-size:33.94px;fill:#008fb2;font-family:Objectivity-Medium, Objectivity;font-weight:500;}.cls-3{fill:url(#linear-gradient);}</style><linearGradient id="linear-gradient" x1="79.67" y1="151.06" x2="163" y2="151.06" gradientUnits="userSpaceOnUse"><stop offset="0.39" stop-color="#00a3ba"/><stop offset="1" stop-color="#0085ac"/></linearGradient></defs><rect class="cls-1" width="421.17" height="134.94" rx="67.47"/><text class="cls-2" transform="translate(173.3 74.66)">Call us</text><g id="zfJxgO.tif"><path class="cls-3" d="M79.67,154.39v-6.68c0-.26.1-.53.12-.8a37.68,37.68,0,0,1,1.15-6.4,41,41,0,0,1,21-26.37,41.64,41.64,0,0,1,55,15.35A41.66,41.66,0,0,1,149.24,182a41,41,0,0,1-22.46,10.43c-1.75.24-3.51.22-5.26.41h-1.3c-1.3-.11-2.6-.19-3.89-.35a41.83,41.83,0,0,1-35.14-29.94A52.34,52.34,0,0,1,79.67,154.39Zm55.12,20.21c2.2.26,4.38-.87,6.36-2.43a8.68,8.68,0,0,0,3.6-7.55,3.21,3.21,0,0,0-2.36-3.24c-3.65-.94-7.31-1.84-11-2.78a1.21,1.21,0,0,0-1.31.36c-1.05,1.07-2.14,2.09-3.15,3.19a1.35,1.35,0,0,1-1.77.37c-7.39-3.22-12.39-8.78-15.75-16a1,1,0,0,1,.3-1.22c1.34-1.31,2.64-2.66,4-4a1.19,1.19,0,0,0,.33-1.43c-1-3-2-6-3-8.95a4.06,4.06,0,0,0-4.65-2.9c-2.88.26-4.9,1.88-6.55,4.08a7.07,7.07,0,0,0-1.71,3.46,19.28,19.28,0,0,0,.21,5.36,31.64,31.64,0,0,0,4.89,11.37A56.29,56.29,0,0,0,125,172.09,21,21,0,0,0,134.79,174.6Z" transform="translate(-38.97 -82.78)"/></g></svg>