<svg id="Layer_1" data-name="Layer 1" xmlns="http://www.w3.org/2000/svg" viewBox="0 0 170.33 173.7"><defs><style>.cls-1{fill:#666;}.cls-2{fill:#00a0b6;}</style></defs><g id="FP6xzW.tif"><path class="cls-1" d="M139.26,198a71.18,71.18,0,0,0,30.21-15.17,73.59,73.59,0,0,0,10.65-11,7.81,7.81,0,0,1,.75-.87c1-1,2.21-1.33,3.41-.37a2.3,2.3,0,0,1,.44,3.41,56.72,56.72,0,0,1-3.87,4.74,80.51,80.51,0,0,1-45.33,25.6,7.6,7.6,0,0,0-3.71,1.8A46.82,46.82,0,0,1,119,214a8.28,8.28,0,0,1-5,.53q-45.15-9.24-70.22-47.9a113,113,0,0,1-8.91-17.55,13.35,13.35,0,0,1-.82-8.72,52.58,52.58,0,0,1,4.3-12.23,7.71,7.71,0,0,0,.86-3.67c.16-22.35,8-41.68,23.59-57.62a77.66,77.66,0,0,1,45.56-23.21c28.51-4,52.82,4.63,72.53,25.53,12,12.77,18.84,28.2,20.87,45.67a80.45,80.45,0,0,1-10,49.4,18.65,18.65,0,0,1-1.18,2c-.84,1.17-2,1.71-3.3.92s-1.42-2-.82-3.34c.49-1,1.06-2,1.6-3.05a70.57,70.57,0,0,0,8.85-31.4c1.09-33.13-13.17-57.61-42.27-73.26-11.93-6.41-25-8.81-38.51-7.94a76.42,76.42,0,0,0-71.06,64.23,33.19,33.19,0,0,0-.66,6.33c1.06-1.14,1.81-2,2.59-2.77,2.69-2.74,5.86-4.54,9.8-4.49,1.53,0,2.07-.57,2.43-2A62.46,62.46,0,0,1,86.76,70.88a61.69,61.69,0,0,1,22.1-8.76c2-.38,3.33.32,3.67,1.81s-.57,2.73-2.73,3.18Q83.12,72.6,69.65,96.27A56,56,0,0,0,63.8,112c-.16.72-.28,1.33.45,1.86,5,3.58,7.89,8.76,10.74,14,.27.5.46,1,.76,1.54,2.29,3.73,3.28,7.44.61,11.53-.82,1.26-.86,3-1.25,4.58-.47,1.89-1.53,2.76-3,2.47s-2.18-1.56-1.89-3.46a29.38,29.38,0,0,1,2.33-7.66,2.55,2.55,0,0,0,.13-2.36c-2.22-4.68-4.47-9.34-7.85-13.32-2.11-2.5-4.36-4.87-8.11-4.68a7.82,7.82,0,0,0-5.32,2.26,44,44,0,0,0-12.74,23.31,6.37,6.37,0,0,0,.29,3.73q20.87,51.36,74.92,63.57a6.85,6.85,0,0,0,4.61-.59,43.39,43.39,0,0,0,16.43-13.13c.55-.71,1.11-1.4,1.7-2.07,2.85-3.28,3-7.34.13-10.6-4.08-4.7-9.52-7.4-15-10-.83-.4-1.29.17-1.84.61a30.71,30.71,0,0,1-46.53-9.09,28.06,28.06,0,0,1-3-8.24A2.58,2.58,0,0,1,72.25,153a2.43,2.43,0,0,1,3,2,32.48,32.48,0,0,0,2.36,6.65,25.6,25.6,0,0,0,39.94,7.21c1.8-1.65,3.43-2,5.68-1A52.38,52.38,0,0,1,138,177.23a3.48,3.48,0,0,0,4.38.74c20.38-8.74,32.75-23.94,36.12-45.89,3.9-25.41-9.85-49.62-32.24-60.36A56.51,56.51,0,0,0,122,66.05c-.83,0-1.66,0-2.49,0-1.52-.08-2.57-.75-2.69-2.39s.89-2.52,2.62-2.68a33.63,33.63,0,0,1,7.44.38c22.49,3,39.18,14.38,49.79,34.46a59.09,59.09,0,0,1,6.78,28.38,63,63,0,0,1-38.91,58.24c-1.31.54-1.68,1.05-1.28,2.52,1.17,4.33-.07,8.18-2.81,11.61C140.1,197,139.67,197.49,139.26,198Z" transform="translate(-32.78 -41.86)"/><path class="cls-1" d="M115.67,215.56a9.37,9.37,0,0,1-1.88-.19C83.53,209.18,59.72,192.94,43,167.1a113.88,113.88,0,0,1-9-17.68,14.08,14.08,0,0,1-.86-9.24,53.6,53.6,0,0,1,4.37-12.42,6.82,6.82,0,0,0,.76-3.28c.17-22.66,8.18-42.24,23.83-58.21a78.58,78.58,0,0,1,46-23.45c28.67-4,53.31,4.63,73.26,25.78,11.9,12.62,19,28.15,21.09,46.16a81.64,81.64,0,0,1-10.07,49.9l-.16.3a17.84,17.84,0,0,1-1.07,1.75c-1.2,1.68-2.81,2.1-4.41,1.15s-2-2.58-1.15-4.42c.39-.82.82-1.62,1.25-2.4l.37-.69a70,70,0,0,0,8.75-31c1.08-32.61-13-57-41.83-72.5-11.35-6.1-24.15-8.74-38.06-7.85a75.6,75.6,0,0,0-70.29,63.53c0,.29-.09.57-.14.86-.16,1-.33,2-.43,3.11.38-.4.72-.77,1.08-1.13,3.19-3.24,6.6-4.79,10.41-4.74,1,0,1.32-.22,1.61-1.36a63.43,63.43,0,0,1,27.9-39.07A62.55,62.55,0,0,1,108.7,61.3c2.41-.46,4.2.47,4.65,2.45a3.09,3.09,0,0,1-.36,2.42,4.44,4.44,0,0,1-3,1.76c-17.5,3.6-30.82,13.27-39.59,28.75a54.64,54.64,0,0,0-5.76,15.49c-.17.76-.13.82.12,1,5.27,3.79,8.31,9.36,11,14.27.13.23.24.48.35.72a6.31,6.31,0,0,0,.4.78c2,3.21,3.8,7.52.59,12.43a7.52,7.52,0,0,0-.82,2.78c-.09.51-.18,1-.31,1.55-.84,3.32-3.07,3.26-4,3.08-1.91-.37-2.91-2.1-2.56-4.4a30.51,30.51,0,0,1,2.4-7.89,1.71,1.71,0,0,0,.13-1.65c-2-4.29-4.34-9.15-7.72-13.14-2.12-2.5-4.14-4.56-7.43-4.38a7,7,0,0,0-4.79,2,43.45,43.45,0,0,0-12.5,22.88,5.49,5.49,0,0,0,.25,3.26c6.87,16.9,16.6,30.78,28.93,41.23s27.6,17.8,45.4,21.83a6,6,0,0,0,4.07-.53,42.84,42.84,0,0,0,16.12-12.88c.55-.72,1.13-1.43,1.72-2.11a6.87,6.87,0,0,0,.14-9.5c-4.1-4.72-9.75-7.44-14.73-9.83-.19-.08-.23-.1-.71.31l-.24.2a31.55,31.55,0,0,1-47.79-9.33,28.8,28.8,0,0,1-3.07-8.49,3.8,3.8,0,0,1,.5-2.91,3.13,3.13,0,0,1,2-1.33,3.23,3.23,0,0,1,4,2.65,32.13,32.13,0,0,0,2.29,6.48,24.78,24.78,0,0,0,38.64,7c2.11-1.94,4.08-2.29,6.58-1.18a52.51,52.51,0,0,1,15,9.57,2.67,2.67,0,0,0,3.48.58c20.37-8.73,32.35-23.95,35.62-45.24a55.4,55.4,0,0,0-6.17-35.16,57.82,57.82,0,0,0-25.61-24.33A55.77,55.77,0,0,0,122,66.89h-.76c-.58,0-1.17,0-1.76,0-2.11-.11-3.35-1.24-3.48-3.18s1.18-3.36,3.38-3.57a34.32,34.32,0,0,1,7.62.39c22.8,3,39.76,14.72,50.42,34.89a59.91,59.91,0,0,1,6.88,28.79,63.88,63.88,0,0,1-39.43,59c-1,.42-1.06.55-.79,1.53,1.1,4.08.25,8.05-2.55,11.81a71.11,71.11,0,0,0,27.37-14.39,72.65,72.65,0,0,0,10.53-10.83,9,9,0,0,1,.82-.94,3.28,3.28,0,0,1,5.11,4.12,56.71,56.71,0,0,1-3.92,4.82,81.64,81.64,0,0,1-45.79,25.85,6.78,6.78,0,0,0-3.31,1.61,47.64,47.64,0,0,1-13.05,8A9.35,9.35,0,0,1,115.67,215.56Zm5.88-172a93.87,93.87,0,0,0-13.11.94,76.87,76.87,0,0,0-45.08,23C48,83.09,40.17,102.29,40,124.49a8.57,8.57,0,0,1-.95,4,52.66,52.66,0,0,0-4.24,12,12.59,12.59,0,0,0,.78,8.2,113.62,113.62,0,0,0,8.84,17.43c16.44,25.44,39.88,41.43,69.69,47.52a7.31,7.31,0,0,0,4.53-.47,45.87,45.87,0,0,0,12.6-7.74,8.31,8.31,0,0,1,4.1-2,80,80,0,0,0,44.87-25.34A53.5,53.5,0,0,0,184,173.5a1.47,1.47,0,0,0-.28-2.26c-.55-.44-1.25-.74-2.3.31a8.8,8.8,0,0,0-.68.79A74.16,74.16,0,0,1,170,183.43a72.5,72.5,0,0,1-30.55,15.35l-2.5.57,1.68-1.94.4-.45c.27-.31.55-.62.8-.94,2.82-3.52,3.69-7.08,2.66-10.86-.56-2.07.3-2.9,1.77-3.52a62.23,62.23,0,0,0,38.4-57.46,58.4,58.4,0,0,0-6.69-28c-10.39-19.66-26.93-31.11-49.15-34a33.78,33.78,0,0,0-7.26-.38c-.74.07-2,.39-1.86,1.79,0,.79.32,1.53,1.89,1.61.55,0,1.09,0,1.67,0q.39,0,.78,0A57.41,57.41,0,0,1,146.6,71,59.58,59.58,0,0,1,173,96a57.13,57.13,0,0,1,6.35,36.21c-3.36,21.9-15.68,37.55-36.62,46.53a4.32,4.32,0,0,1-5.29-.9,51.28,51.28,0,0,0-14.54-9.26c-1.87-.83-3.16-.59-4.77.88A26.43,26.43,0,0,1,76.84,162a32.63,32.63,0,0,1-2.43-6.82c-.47-1.74-1.62-1.51-2-1.44a1.49,1.49,0,0,0-1,.62,2.18,2.18,0,0,0-.25,1.66,27.35,27.35,0,0,0,2.9,8,29.87,29.87,0,0,0,45.27,8.85l.2-.17a2.14,2.14,0,0,1,2.52-.55c5.13,2.46,10.95,5.25,15.27,10.24,3.1,3.57,3,8.05-.13,11.7-.57.65-1.13,1.34-1.66,2a44.61,44.61,0,0,1-16.74,13.38,7.69,7.69,0,0,1-5.15.65C77.51,202,52.11,180.41,38.17,146.1a7.12,7.12,0,0,1-.35-4.21,45.08,45.08,0,0,1,13-23.75,8.74,8.74,0,0,1,5.87-2.5c4.06-.2,6.47,2.24,8.79,5,3.52,4.15,5.88,9.12,8,13.5a3.4,3.4,0,0,1-.13,3.07A28.7,28.7,0,0,0,71,144.63c-.13.82-.14,2.24,1.22,2.5.41.09,1.5.3,2-1.84a14.49,14.49,0,0,0,.28-1.43,9,9,0,0,1,1.08-3.41c2.13-3.26,2-6.44-.62-10.63a7.92,7.92,0,0,1-.49-1c-.1-.21-.19-.42-.3-.62-2.59-4.75-5.53-10.14-10.49-13.71a2.32,2.32,0,0,1-.78-2.72,56.51,56.51,0,0,1,5.94-16c9-15.91,22.71-25.86,40.71-29.56a3,3,0,0,0,2-1,1.44,1.44,0,0,0,.14-1.14c-.31-1.34-1.64-1.38-2.7-1.18a61.14,61.14,0,0,0-21.8,8.64A61.87,61.87,0,0,0,60,109.66c-.47,1.89-1.39,2.66-3.25,2.62-3.33,0-6.35,1.35-9.19,4.24-.51.52-1,1.07-1.6,1.7l-1,1.06-1.42,1.52,0-2.08a28.94,28.94,0,0,1,.53-5.62c0-.29.09-.57.14-.85a77.28,77.28,0,0,1,71.83-64.94c14.23-.91,27.34,1.79,39,8,29.43,15.83,43.8,40.74,42.71,74a71.78,71.78,0,0,1-9,31.76l-.38.7c-.41.76-.84,1.53-1.2,2.31-.64,1.38-.08,1.94.48,2.27s1.31.55,2.2-.69a15.05,15.05,0,0,0,1-1.58l.17-.31A80,80,0,0,0,200.88,115c-2-17.64-9-32.84-20.64-45.2C163.8,52.32,144.11,43.54,121.55,43.54Z" transform="translate(-32.78 -41.86)"/><path class="cls-2" d="M141.91,115.62c0,2.87,0,5.74,0,8.61,0,1.29.45,1.89,1.78,1.83a22.05,22.05,0,0,1,3.25.07,2.48,2.48,0,0,1,2.53,2.59c0,1.59-1.15,2.32-2.68,2.42h-.39c-4.47.17-4.47.17-4.47,4.63,0,1.4,0,2.8,0,4.2-.09,1.78-1.23,3.05-2.65,2.91-1.69-.16-2.41-1.29-2.43-2.88,0-2.3-.09-4.6,0-6.89.05-1.49-.47-2-2-2-4.21.07-8.42,0-12.63,0-1.43,0-2.9,0-3.62-1.54s.21-2.53,1.1-3.59q8.63-10.37,17.22-20.76c.87-1,1.87-1.84,3.29-1.36s1.7,1.78,1.7,3.12C141.92,109.88,141.91,112.75,141.91,115.62ZM126.15,126c3.24,0,5.89-.06,8.54,0,1.54,0,2.18-.45,2.13-2.07-.09-3,0-6.12,0-9.18,0-.35.22-.87-.45-1.09Z" transform="translate(-32.78 -41.86)"/><path class="cls-2" d="M100.58,137.84h11a14.58,14.58,0,0,1,2.29.09,2.5,2.5,0,0,1,0,5,7.68,7.68,0,0,1-1.52.06c-5.61-.1-11.23-.22-16.84-.31a2.67,2.67,0,0,1-2.72-1.39,2.71,2.71,0,0,1,.69-3.15c4.64-5,9.29-10,13.92-15a19.12,19.12,0,0,0,3.1-4.35,8.12,8.12,0,0,0-2.21-9.82,6.14,6.14,0,0,0-6.49-.88c-2.85,1.25-3.84,3.74-4.28,6.57-.12.82,0,1.67-.24,2.47a2.38,2.38,0,0,1-2.59,2.07,2.32,2.32,0,0,1-2.3-2.39c-.1-5,1.54-9.34,5.74-12.28,4-2.78,8.22-2.58,12.25-.12a12,12,0,0,1,6,11.42c-.18,4.9-3.07,8.42-6.1,11.8S104.1,134.15,100.58,137.84Z" transform="translate(-32.78 -41.86)"/></g></svg>