<svg id="Layer_1" data-name="Layer 1" xmlns="http://www.w3.org/2000/svg" viewBox="0 0 137.65 172.16"><defs><style>.cls-1{font-size:21.9px;font-family:Objectivity-Bold, Objectivity;font-weight:700;letter-spacing:-0.07em;}.cls-1,.cls-2{fill:#333;}</style></defs><text class="cls-1" transform="translate(0 164.84)">AZAM FERRY</text><polygon class="cls-2" points="115.86 95.17 21.37 95.17 21.37 57.79 22.27 57.79 22.27 94.27 114.96 94.27 114.96 72.44 115.86 72.44 115.86 95.17"/><path class="cls-2" d="M97.16,122.43c-.88.26-1.69.46-2.44.62a13,13,0,0,1-2.69.24A4,4,0,0,1,90,122.9a2.36,2.36,0,0,1-.83-1,9.19,9.19,0,0,1-5.27,1.35,7.91,7.91,0,0,1-3-.48,3.29,3.29,0,0,1-1.6-1.21,2.78,2.78,0,0,1-.46-1.51,2.56,2.56,0,0,1,.79-1.94,5.79,5.79,0,0,1,2.13-1.26,31.87,31.87,0,0,1,3.55-1l1.89-.45,1-.25c.21-.06.43-.13.66-.22a2,2,0,0,0-.5-1.45,3.11,3.11,0,0,0-2.17-.53,9.92,9.92,0,0,0-3.66.66,12.79,12.79,0,0,0-3.09,1.68v-3.47a12.15,12.15,0,0,1,2.42-1,18,18,0,0,1,2.72-.58,22.8,22.8,0,0,1,2.87-.19,11.34,11.34,0,0,1,5.56,1.08,3.27,3.27,0,0,1,1.86,3V119a2.36,2.36,0,0,0,.18,1,.64.64,0,0,0,.64.34,4.71,4.71,0,0,0,1.54-.36ZM88.79,120v-3a19.37,19.37,0,0,0-3.13,1.18,1.56,1.56,0,0,0-1,1.4,1.1,1.1,0,0,0,.49,1,2,2,0,0,0,1.15.34,3.34,3.34,0,0,0,1.23-.25A13.17,13.17,0,0,0,88.79,120Z" transform="translate(-54.6 -37.78)"/><path class="cls-2" d="M115.29,110.73l-8.16,9h8v3.35H97.64v-.41l8.16-9H98.32v-3.35h17Z" transform="translate(-54.6 -37.78)"/><path class="cls-2" d="M135.66,122.43c-.88.26-1.69.46-2.44.62a13,13,0,0,1-2.69.24,4,4,0,0,1-2.07-.39,2.28,2.28,0,0,1-.83-1,9.19,9.19,0,0,1-5.27,1.35,7.84,7.84,0,0,1-3-.48,3.33,3.33,0,0,1-1.61-1.21,2.86,2.86,0,0,1-.46-1.51,2.57,2.57,0,0,1,.8-1.94,5.79,5.79,0,0,1,2.13-1.26,31.25,31.25,0,0,1,3.55-1l1.89-.45,1-.25c.21-.06.44-.13.67-.22a2,2,0,0,0-.5-1.45,3.13,3.13,0,0,0-2.17-.53,9.92,9.92,0,0,0-3.66.66,13,13,0,0,0-3.1,1.68v-3.47a12.24,12.24,0,0,1,2.43-1,17.69,17.69,0,0,1,2.72-.58,22.68,22.68,0,0,1,2.87-.19,11.37,11.37,0,0,1,5.56,1.08,3.27,3.27,0,0,1,1.86,3V119a2.53,2.53,0,0,0,.17,1,.67.67,0,0,0,.65.34,4.76,4.76,0,0,0,1.54-.36ZM127.29,120v-3a19.57,19.57,0,0,0-3.14,1.18,1.57,1.57,0,0,0-1,1.4,1.11,1.11,0,0,0,.5,1,2,2,0,0,0,1.15.34,3.38,3.38,0,0,0,1.23-.25A13.17,13.17,0,0,0,127.29,120Z" transform="translate(-54.6 -37.78)"/><path class="cls-2" d="M168.4,123.06h-6v-6.8a3,3,0,0,0-.59-2,2.4,2.4,0,0,0-1.88-.67,3.46,3.46,0,0,0-2.06.57,10.4,10.4,0,0,0-1.61,1.43v7.49h-6v-6.8a3.14,3.14,0,0,0-.56-2,2.37,2.37,0,0,0-2-.7,3.79,3.79,0,0,0-1.24.2,3.58,3.58,0,0,0-.92.45,8.54,8.54,0,0,0-.86.74l-.64.61v7.49h-6V110.31h6v1.83a9.47,9.47,0,0,1,2.77-1.57,10.09,10.09,0,0,1,3.25-.49,11.09,11.09,0,0,1,1.67.13,7.22,7.22,0,0,1,1.55.4,5,5,0,0,1,1.38.79,3.91,3.91,0,0,1,1,1.17,11.17,11.17,0,0,1,3-1.86,9.56,9.56,0,0,1,3.6-.63,8.4,8.4,0,0,1,3.42.62,4.25,4.25,0,0,1,2,1.77,5.59,5.59,0,0,1,.66,2.81Z" transform="translate(-54.6 -37.78)"/><path class="cls-2" d="M85.18,124.45h1.08v6.21H85.1v-4.83l-2.5,2.4h-.22l-2.53-2.4v4.83H78.68v-6.21H79.8L82.49,127Z" transform="translate(-54.6 -37.78)"/><path class="cls-2" d="M90.57,124.4h.83l3.66,6.26h-1.2l-1.08-1.84H89.3l-1,1.84H87.1ZM92.31,128,91,125.77,89.75,128Z" transform="translate(-54.6 -37.78)"/><path class="cls-2" d="M96,130.66v-6.21h2a3.6,3.6,0,0,1,2,.46,1.43,1.43,0,0,1,.72,1.26,1.32,1.32,0,0,1-.35.94,2.19,2.19,0,0,1-1,.59,3.38,3.38,0,0,1,.77.54,9.47,9.47,0,0,1,1.06,1.18,10.4,10.4,0,0,0,.68.79l.43.45h-1.39l-.35-.41-.07-.08-.23-.24-.36-.46-.39-.48a5,5,0,0,0-.66-.61,2.8,2.8,0,0,0-.54-.33,2.56,2.56,0,0,0-.82-.1h-.3v2.71Zm1.52-5.46h-.35v2h.44a4.55,4.55,0,0,0,1.21-.11,1.19,1.19,0,0,0,.51-.35.83.83,0,0,0,0-1.06,1.15,1.15,0,0,0-.57-.33A5.09,5.09,0,0,0,97.52,125.2Z" transform="translate(-54.6 -37.78)"/><path class="cls-2" d="M103.19,124.45h1.17v6.21h-1.17Z" transform="translate(-54.6 -37.78)"/><path class="cls-2" d="M112.64,124.45h1.1v6.21h-1l-5.45-4.78v4.78h-1.1v-6.21h1l5.5,4.82Z" transform="translate(-54.6 -37.78)"/><path class="cls-2" d="M115.47,124.45h4.61v.8h-3.44v1.88H120v.8h-3.32v1.93h3.55v.8h-4.72Z" transform="translate(-54.6 -37.78)"/><path class="cls-2" d="M131.77,129.24v1a7.83,7.83,0,0,1-3,.53,5.71,5.71,0,0,1-2.31-.42,3.78,3.78,0,0,1-1.51-1.16,2.58,2.58,0,0,1-.55-1.59,2.76,2.76,0,0,1,1.27-2.3,5.14,5.14,0,0,1,3.13-.93,9.35,9.35,0,0,1,2.85.51v1a7,7,0,0,0-2.79-.62,3.82,3.82,0,0,0-2.32.68,2,2,0,0,0-.92,1.69,2,2,0,0,0,.9,1.7,3.89,3.89,0,0,0,2.33.66A6.53,6.53,0,0,0,131.77,129.24Z" transform="translate(-54.6 -37.78)"/><path class="cls-2" d="M137.2,124.35a5.23,5.23,0,0,1,3.16.92,2.71,2.71,0,0,1,0,4.58,5.43,5.43,0,0,1-3.21.9,5,5,0,0,1-3.07-.9,2.71,2.71,0,0,1-1.23-2.27,2.77,2.77,0,0,1,1.23-2.31A5.14,5.14,0,0,1,137.2,124.35Zm.06.85a3.77,3.77,0,0,0-2.31.67,2.06,2.06,0,0,0-.9,1.71,2,2,0,0,0,.91,1.68,3.75,3.75,0,0,0,2.27.67,3.68,3.68,0,0,0,2.28-.69,2,2,0,0,0,.91-1.7,2,2,0,0,0-.91-1.66A3.69,3.69,0,0,0,137.26,125.2Z" transform="translate(-54.6 -37.78)"/><path class="cls-2" d="M146.34,124.45h1.17v5.41h3.67v.8h-4.84Z" transform="translate(-54.6 -37.78)"/><path class="cls-2" d="M150.31,124.45h6.81v.8h-2.84v5.41h-1.17v-5.41h-2.8Z" transform="translate(-54.6 -37.78)"/><path class="cls-2" d="M158.21,130.66v-6.21H161a7.3,7.3,0,0,1,2.64.38,3.47,3.47,0,0,1,1.56,1.12,2.58,2.58,0,0,1,.57,1.61,2.43,2.43,0,0,1-.31,1.19,3.19,3.19,0,0,1-.91,1,4.19,4.19,0,0,1-1.39.68,5.2,5.2,0,0,1-.85.18c-.26,0-.76,0-1.48,0Zm2.64-5.41h-1.47v4.61h1.51a7.89,7.89,0,0,0,1.36-.09,4.11,4.11,0,0,0,.82-.23,3,3,0,0,0,.6-.35,2,2,0,0,0,.87-1.68,1.92,1.92,0,0,0-.9-1.63,3.32,3.32,0,0,0-.75-.39,3.91,3.91,0,0,0-.81-.19A9.38,9.38,0,0,0,160.85,125.25Z" transform="translate(-54.6 -37.78)"/><path class="cls-2" d="M173.61,91.92l-5.28-4.3V79l-31.26-.39L134,75.7l-1.57.2L130,71.4c3.32-2.54-1-.58-1-.58l-16-.39-9.18,4.1s-14.46.39-18,2.93A7.11,7.11,0,0,1,82.75,79S64.58,84.1,65.56,86.84c0,0,7.62,6.06,14.07,9.18l23.56-.25,1.15-.36q5.31-1.62,10.78-2.75A122.85,122.85,0,0,1,140,90.17c16.33,0,27.4,3.23,27.52,3.27a46.2,46.2,0,0,1,4.87,1.47l.47-.06C174.58,94.66,173.61,91.92,173.61,91.92ZM111.28,72.58l14.27.39,1.56,2.93-21.89-.39ZM78.65,83.91l7.82-2.54,69,.59,2.34,3.12Zm88.9,2.93L166,85.08h-6.45L156.81,81l7,.19V79.42l3.91-.2Z" transform="translate(-54.6 -37.78)"/><path class="cls-2" d="M180.15,101.24c-.75-2.24-3.26-4.16-7.49-5.73a45.59,45.59,0,0,0-4.87-1.46c-.11,0-11.19-3.27-27.51-3.27a123,123,0,0,0-24.86,2.49Q110,94.38,104.64,96l-1.15.36a117.87,117.87,0,0,0-17.32,7.07l.38.83a168.64,168.64,0,0,1,29.81-8,123,123,0,0,1,20.84-1.93,78.22,78.22,0,0,1,16.05,1.54,54.34,54.34,0,0,1,11.07,3.51c.27.18,2.76,1.9,2.13,4l0,.12s-.55,3.78-14.07,5.82l.05.9s1.2.07,3.07.07h0c6.38,0,18-.66,24-5l.08-.08A4.28,4.28,0,0,0,180.15,101.24Zm-1.29,3.27c-2,1.42-7.89,4.57-21.77,4.8,9.35-2.13,10.17-5.15,10.24-5.75.82-2.82-2.42-4.88-2.56-5l-.05,0A51,51,0,0,0,157,95.82a75.67,75.67,0,0,0-19.79-2.41,131,131,0,0,0-26,2.89c-6.42,1.32-12.08,2.89-16.39,4.21a113.4,113.4,0,0,1,11.95-4.16L108,96c1.37-.38,2.75-.73,4.14-1.06a121.18,121.18,0,0,1,28.14-3.24,106.78,106.78,0,0,1,27.27,3.23c1,.25,1.91.5,2.75.76,6.38,2,8.43,4.2,9,5.83A3.33,3.33,0,0,1,178.86,104.51Z" transform="translate(-54.6 -37.78)"/><path class="cls-2" d="M123.28,171.26A66.74,66.74,0,1,1,190,104.52,66.82,66.82,0,0,1,123.28,171.26Zm0-130.78a64,64,0,1,0,64,64A64.12,64.12,0,0,0,123.28,40.48Z" transform="translate(-54.6 -37.78)"/></svg>