<svg id="Layer_1" data-name="Layer 1" xmlns="http://www.w3.org/2000/svg" xmlns:xlink="http://www.w3.org/1999/xlink" viewBox="0 0 133.48 172.81"><defs><style>.cls-1,.cls-2{fill:#333;}.cls-2{font-size:21.9px;font-family:Objectivity-Bold, Objectivity;font-weight:700;letter-spacing:-0.07em;}.cls-3{clip-path:url(#clip-path);}</style><clipPath id="clip-path" transform="translate(-54.83 -37.46)"><path class="cls-1" d="M71.09,97.7c-9.19,5.86-4.38,11.57-4.38,11.57l0,0,0,0s5-8.79,31.09-11q4.14-.34,8.07-.52h.12l1.87-.07h.13c1.64-.06,3.25-.09,4.82-.12h3.77c.48,0,1,0,1.44,0h.49l1.8.05h.11c37.21,1.11,53.9,13.69,28.13,22.62-11.81,4.07-29.35,3.23-29.1,4.24,0,.23,1.56.36,4,.35,7.33,0,23.29-1.2,34.62-4.72,17.88-5.6,18.63-11.83,18.63-11.83s5.9-13.19-23.74-18.45v0l-.91-.17h0c-2-.32-4.09-.62-6.37-.88a227.73,227.73,0,0,0-24.52-1.42h-.32C102.32,87.4,83.2,90,71.09,97.7"/></clipPath></defs><text class="cls-2" transform="translate(17.36 165.49)">AZAM TV</text><path class="cls-1" d="M71.09,97.7c-9.19,5.86-4.38,11.57-4.38,11.57l0,0,0,0s5-8.79,31.09-11q4.14-.34,8.07-.52h.12l1.87-.07h.13c1.64-.06,3.25-.09,4.82-.12h3.77c.48,0,1,0,1.44,0h.49l1.8.05h.11c37.21,1.11,53.9,13.69,28.13,22.62-11.81,4.07-29.35,3.23-29.1,4.24,0,.23,1.56.36,4,.35,7.33,0,23.29-1.2,34.62-4.72,17.88-5.6,18.63-11.83,18.63-11.83s5.9-13.19-23.74-18.45v0l-.91-.17h0c-2-.32-4.09-.62-6.37-.88a227.73,227.73,0,0,0-24.52-1.42h-.32C102.32,87.4,83.2,90,71.09,97.7" transform="translate(-54.83 -37.46)"/><g class="cls-3"><rect class="cls-1" x="7.07" y="49.94" width="120.81" height="37.47"/></g><path class="cls-1" d="M100.87,117.49c-.47,0-.79,0-1.13-.07l4.18-12.18-5.92,0h0a1.12,1.12,0,0,1-.5-.08.69.69,0,0,1-.44-.48l-.6,5.07.32.14c.31-1.86,1.44-2.86,2.2-2.86a3.81,3.81,0,0,1,.89.12l-4.19,12.14,6.45,0h0a1,1,0,0,1,1.09.56l.84-5.45-.34-.17c-.47,2.37-1.7,3.26-2.84,3.26" transform="translate(-54.83 -37.46)"/><path class="cls-1" d="M93.92,115.47l0-5.19c0-1.53,0-3.29-.79-4.35a2.85,2.85,0,0,0-2.39-1h0a7.89,7.89,0,0,0-2.95.78,1.6,1.6,0,0,1-.63.17c-.24,0-.37-.19-.53-.48l-.31,5.1.33.05c.48-2.08,1.52-3.44,2.82-3.45a1.3,1.3,0,0,1,1.22.73,4.19,4.19,0,0,1,.23,1.9V110c-1.9.53-5.32,1.76-5.31,6.17,0,2.34,1.21,3.58,2.41,3.58h0a3.4,3.4,0,0,0,2.92-2.28,5.11,5.11,0,0,0,.56,1.9h3.34v-.71c-1-.17-.9-1.82-.9-3.13m-4.48,1.38h0c-.55,0-.87-.87-.87-1.76a4.42,4.42,0,0,1,1-2.68,2.52,2.52,0,0,1,1.37-.83c0,1.73-.14,5.27-1.47,5.27" transform="translate(-54.83 -37.46)"/><path class="cls-1" d="M113.45,115.39l0-5.18c0-1.54,0-3.3-.79-4.35a2.86,2.86,0,0,0-2.4-1,7.75,7.75,0,0,0-2.94.78,2,2,0,0,1-.64.17c-.25,0-.37-.2-.53-.48l-.3,5.09.32.06c.49-2.09,1.53-3.45,2.81-3.45a1.3,1.3,0,0,1,1.23.73,4.22,4.22,0,0,1,.23,1.91v.22c-1.9.53-5.32,1.76-5.31,6.17,0,2.33,1.21,3.58,2.41,3.58h0a3.43,3.43,0,0,0,2.92-2.29,5,5,0,0,0,.57,1.91h3.33v-.72c-1-.16-.88-1.82-.89-3.13M109,116.78c-.54,0-.86-.88-.87-1.76a4.48,4.48,0,0,1,1-2.69,2.56,2.56,0,0,1,1.37-.82c0,1.73-.14,5.27-1.47,5.27" transform="translate(-54.83 -37.46)"/><path class="cls-1" d="M129.45,116.18l0-6.57A9.18,9.18,0,0,0,129,106a1.93,1.93,0,0,0-1.62-1.25h0c-1.19,0-2.31,1.29-3,2.87-.29-1.85-1-2.85-2.11-2.85s-2.27,1.44-3,2.86a13,13,0,0,0-.45-2.7l-3.41.41v.71c.6.06.87.8.88,2.27l0,7.89c0,1.48-.27,2.22-.86,2.28v.71l4.78,0v-.71c-.59,0-.86-.79-.92-2.27l0-3.76a13.16,13.16,0,0,1,.22-3c.18-.76.65-1.56,1.15-1.57.87,0,.77,1.88.78,2.9l0,5.44c0,1.48-.34,2.22-.92,2.28v.71l4.8,0v-.71c-.59,0-.88-.79-.89-2.27v-3.36a12.77,12.77,0,0,1,.29-3.59c.2-.71.6-1.39,1.08-1.39.82,0,.76,1.84.76,2.81l0,5.52c0,1.48-.3,2.22-.9,2.28v.71h4.8v-.72c-.59,0-.9-.79-.9-2.28" transform="translate(-54.83 -37.46)"/><path class="cls-1" d="M136.56,117.38a2.82,2.82,0,0,1-2.1-.83,3.75,3.75,0,0,1-.81-2.68v-9.52h7.93l1.14-2.21h-9.14v-1.59h-.29L126.8,104v.4h3.87c0,1.6,0,3.41,0,5.45s0,2.94,0,5.21a8.06,8.06,0,0,0,.47,2.28,4.27,4.27,0,0,0,.77,1.13,3.93,3.93,0,0,0,1.26.68,4.59,4.59,0,0,0,1.48.24,6.6,6.6,0,0,0,2.05-.28,4.56,4.56,0,0,0,1.51-.76,3.11,3.11,0,0,0,.28-.23l-.36-.92a4.4,4.4,0,0,1-1.49.23" transform="translate(-54.83 -37.46)"/><path class="cls-1" d="M147.63,103.14c-.23-.85-1.35-1-2.11-1h-.89l-1.14,2.22h.58a4.48,4.48,0,0,1,.86.11,1.67,1.67,0,0,1,.72.35.91.91,0,0,1,.24.8c0,.22-3.46,8.86-3.83,9.75-.22-.58-.49-1.25-.81-2s-.64-1.56-1-2.39-.66-1.64-1-2.45c-.25-.66-.49-1.13-.7-1.7-.06-.14-.11-.29-.16-.43s-.2-.53-.29-.76h-3.32l.32.78a4,4,0,0,1,.17.41l.15.36c.51,1.33,1,2.41,1.4,3.47s.73,1.87,1.07,2.72a2,2,0,0,0,.11.26c.37.93.72,1.84,1.07,2.72.22.58.43,1.1.66,1.67l.38,1a.72.72,0,0,0,.61.44.73.73,0,0,0,.59-.33c.15-.31,4.59-11.24,5-12.16l1-2.39c.34-.79.39-1,.28-1.39" transform="translate(-54.83 -37.46)"/><path class="cls-1" d="M121.57,170.94a66.74,66.74,0,1,1,66.74-66.74A66.82,66.82,0,0,1,121.57,170.94Zm0-130.79a64,64,0,1,0,64.05,64.05A64.13,64.13,0,0,0,121.57,40.15Z" transform="translate(-54.83 -37.46)"/></svg>