<svg id="Layer_1" data-name="Layer 1" xmlns="http://www.w3.org/2000/svg" viewBox="0 0 414.15 118.78"><defs><style>.cls-1{fill:#fff;}.cls-2{fill:#009ab0;}.cls-3{fill:#f9c10f;}.cls-4{fill:#0093b6;}</style></defs><path class="cls-1" d="M427.16,65.72A59.53,59.53,0,0,0,380,18.59a58.65,58.65,0,0,0-11.16-1.06H73.48a58.65,58.65,0,0,0-11.16,1.06A59.39,59.39,0,0,0,73.48,136.31H368.83a59.37,59.37,0,0,0,58.33-70.59ZM368.83,134.2H73.48a57.28,57.28,0,1,1,0-114.55H368.83a57.28,57.28,0,1,1,0,114.55Z" transform="translate(-14.08 -17.53)"/><path class="cls-2" d="M426.11,76.92a57.34,57.34,0,0,1-57.28,57.28H73.48a57.28,57.28,0,1,1,0-114.55H368.83A57.34,57.34,0,0,1,426.11,76.92Z" transform="translate(-14.08 -17.53)"/><path class="cls-1" d="M245.87,79.19s-1.3,10.35-31.1,19.57a158.78,158.78,0,0,1-22.31,4.83c-21,3.16-41.71,3.29-42,2.2-.36-1.42,20.29-.57,38.58-4.27a79.43,79.43,0,0,0,9.89-2.6C232.59,87.41,223,72,187.51,64.86c-18.27-3.69-43.4-5.18-73-2.82-43.54,3.43-51.85,18-51.85,18s-8-9.54,7.39-19.24c29.5-18.66,84-19,124.29-14.3,1.78.2,3.49.42,5.15.65C256.68,55.23,245.87,79.19,245.87,79.19Z" transform="translate(-14.08 -17.53)"/><path class="cls-1" d="M118.57,89.83V80.14c0-2.88,0-6.18-1.4-8.15a5.13,5.13,0,0,0-4.38-1.92,14,14,0,0,0-5.39,1.44,3.2,3.2,0,0,1-1.17.32c-.44,0-.68-.38-1-.91l-.58,9.54.58.1c.91-3.89,2.81-6.44,5.18-6.44a2.33,2.33,0,0,1,2.22,1.39,7.64,7.64,0,0,1,.41,3.56v.43c-3.48,1-9.74,3.25-9.74,11.5,0,4.37,2.19,6.71,4.39,6.71a6.25,6.25,0,0,0,5.35-4.26,9.9,9.9,0,0,0,1,3.57h6.09V95.69c-1.79-.32-1.62-3.4-1.62-5.86m-8.19,2.56c-1,0-1.58-1.66-1.58-3.3a8.35,8.35,0,0,1,1.79-5,4.48,4.48,0,0,1,2.52-1.54c0,3.24-.3,9.85-2.73,9.85m73.13-1V79.13c0-2.19,0-5-.81-6.71a3.55,3.55,0,0,0-3-2.35c-2.17,0-4.24,2.39-5.59,5.33-.5-3.46-1.84-5.33-3.84-5.33s-4.15,2.67-5.56,5.33a25.59,25.59,0,0,0-.81-5.06l-6.24.75v1.33c1.08.11,1.58,1.49,1.58,4.25V91.43c0,2.76-.5,4.15-1.58,4.26V97h8.72V95.69c-1.08-.11-1.58-1.5-1.67-4.26v-7a25.78,25.78,0,0,1,.41-5.65c.36-1.43,1.2-2.92,2.11-2.92,1.61,0,1.41,3.51,1.41,5.42V91.43c0,2.76-.62,4.15-1.7,4.26V97h8.78V95.69c-1.09-.11-1.61-1.5-1.61-4.26V85.14a24.89,24.89,0,0,1,.56-6.71c.38-1.33,1.11-2.6,2-2.6,1.49,0,1.38,3.45,1.38,5.26V91.43c0,2.76-.58,4.15-1.67,4.26V97h8.78V95.69c-1.08-.11-1.64-1.5-1.64-4.26m-29.23-1.6V80.14c0-2.88,0-6.18-1.41-8.15a5.14,5.14,0,0,0-4.39-1.92,14,14,0,0,0-5.38,1.44,3.2,3.2,0,0,1-1.17.32c-.44,0-.67-.38-1-.91l-.58,9.54.58.1c.91-3.89,2.82-6.44,5.18-6.44a2.33,2.33,0,0,1,2.22,1.39,7.77,7.77,0,0,1,.41,3.56v.43c-3.48,1-9.74,3.25-9.74,11.5,0,4.37,2.2,6.71,4.39,6.71a6.26,6.26,0,0,0,5.35-4.26,9.9,9.9,0,0,0,1,3.57h6.08V95.69c-1.78-.32-1.6-3.4-1.6-5.86m-8.19,2.56c-1,0-1.59-1.66-1.59-3.3a8.35,8.35,0,0,1,1.79-5,4.52,4.52,0,0,1,2.51-1.54c0,3.24-.29,9.85-2.71,9.85m-14.82,1.28a20.4,20.4,0,0,1-2.07-.16l7.72-22.75H126.1a2.11,2.11,0,0,1-1-.16,1.26,1.26,0,0,1-.79-.9l-1.14,9.48.58.27c.59-3.47,2.67-5.33,4-5.33a7.91,7.91,0,0,1,1.65.21L121.7,97h11.8a1.86,1.86,0,0,1,2,1.07l1.58-10.18-.62-.31c-.87,4.41-3.13,6.07-5.21,6.07" transform="translate(-14.08 -17.53)"/><path class="cls-3" d="M373.49,52.05V99.69a6.28,6.28,0,0,1-6.57,6.38H196.67c-.53,0-1,.27-1.51.14a145.81,145.81,0,0,0,22.31-5.1c29.8-10.07,31.09-20.84,31.09-20.84s10.81-26.87-46.38-34.4H366.92C370.49,45.87,373.49,48.15,373.49,52.05Z" transform="translate(-14.08 -17.53)"/><path class="cls-4" d="M282.53,70.68c0,6.47-4.08,10.22-11.2,10.22h-6.18v8.33h-5.41V60.94h11.59C278.45,60.94,282.53,64.46,282.53,70.68Zm-5.14.16c0-3.47-2.3-5.17-6.34-5.17h-5.9V76.14h5.9C275.09,76.14,277.39,74.4,277.39,70.84Z" transform="translate(-14.08 -17.53)"/><path class="cls-4" d="M306.16,80.26h-16a6,6,0,0,0,6.19,4.93,8,8,0,0,0,5.81-2.43L305,85.71a12,12,0,0,1-9.09,3.72c-6.71,0-11.11-4.44-11.11-11s4.53-11,11-11C303.42,67.45,306.69,72.42,306.16,80.26Zm-4.76-3.52a5.14,5.14,0,0,0-5.54-5.21c-3.11,0-5.29,2-5.78,5.21Z" transform="translate(-14.08 -17.53)"/><path class="cls-4" d="M317.2,71.49c-1.7,0-2.91.57-2.91,1.9,0,3.64,11.43,1.74,11.43,9.49,0,4.41-3.92,6.55-8.52,6.55a13.86,13.86,0,0,1-8.93-3l1.81-3.68a12.06,12.06,0,0,0,7.32,2.67c1.82,0,3.19-.61,3.19-2,0-4-11.27-1.82-11.23-9.5,0-4.44,3.8-6.5,8.16-6.5a14.59,14.59,0,0,1,7.92,2.3l-1.9,3.8A13.29,13.29,0,0,0,317.2,71.49Z" transform="translate(-14.08 -17.53)"/><path class="cls-4" d="M343,89.23V86.6c-1.5,1.9-3.92,2.87-7,2.87-4.65,0-7.56-2.87-7.56-6.71,0-4,2.95-6.46,8.2-6.5h6.31v-.57c0-2.5-1.66-4-4.89-4a12.7,12.7,0,0,0-6.43,2l-1.9-3.63a17.38,17.38,0,0,1,9.5-2.67c5.65,0,8.85,2.87,8.89,7.68l0,14.14Zm0-7.52V79.77h-5.46c-2.79,0-4.08.77-4.08,2.67s1.45,3,3.84,3C340.27,85.43,342.65,83.81,342.94,81.71Z" transform="translate(-14.08 -17.53)"/></svg>