<svg id="Layer_1" data-name="Layer 1" xmlns="http://www.w3.org/2000/svg" viewBox="0 0 133.48 172.92"><defs><style>.cls-1,.cls-2{fill:#333;}.cls-2{font-size:21.9px;font-family:Objectivity-Bold, Objectivity;font-weight:700;letter-spacing:-0.07em;}</style></defs><path class="cls-1" d="M130.73,95.75a14.76,14.76,0,0,1,10.75,5.43c.58.7.56,1.3,0,1.77s-1.16.41-1.74-.26a12.9,12.9,0,0,0-7.55-4.46c-.7-.14-1.43-.18-2.15-.26-.91-.11-1.31-.48-1.27-1.19s.48-1,1.42-1Z" transform="translate(-52.8 -37.4)"/><path class="cls-1" d="M101.13,94.62A1.12,1.12,0,0,1,100,93.19a9.75,9.75,0,0,1,4.27-5,1,1,0,0,1,1.46.32,1,1,0,0,1-.24,1.54,9.55,9.55,0,0,0-3.41,4A1.06,1.06,0,0,1,101.13,94.62Z" transform="translate(-52.8 -37.4)"/><path class="cls-1" d="M144.9,109.78c0,1.59-.26,2-1.05,2.08s-1.13-.43-1.26-1.72c-.05-.55-.08-1.1-.1-1.65a1.12,1.12,0,0,1,2.22-.26,7.94,7.94,0,0,1,.15.85C144.89,109.4,144.89,109.72,144.9,109.78Z" transform="translate(-52.8 -37.4)"/><text class="cls-2" transform="translate(9.78 165.61)">DAWASCO</text><path class="cls-1" d="M140.67,152.87a8.82,8.82,0,0,1-6.53-5.44,7.92,7.92,0,0,1,.18-6.48,28.06,28.06,0,0,1,4.22-6c.85-1,1.65-2.09,2.4-3.19a1.42,1.42,0,0,1,2.51-.12c1.49,2.29,3.43,4.22,5,6.45A12.36,12.36,0,0,1,150.8,143a8.61,8.61,0,0,1-5.92,9.61l-.91.31Zm8-8.48a6.14,6.14,0,0,0-1-3.29c-1.38-2.51-3.45-4.51-5.13-6.8-.22-.31-.4-.24-.6,0-1.48,2-3.26,3.85-4.63,6a8,8,0,0,0-1.43,3.51,6.39,6.39,0,1,0,12.76.57Z" transform="translate(-52.8 -37.4)"/><path class="cls-1" d="M71.37,98.21v-18c0-1.45,0-1.5,1.54-1.49a11.7,11.7,0,0,1,2.51.08,5.61,5.61,0,0,1,4.42,5.52c0,2.23,0,4.46,0,6.7,0,.73.25.93,1,.93q7.26,0,14.52,0A1.41,1.41,0,0,0,96.78,91a13.13,13.13,0,0,1,3.89-4.94,1.44,1.44,0,0,0,.63-1.33c0-.84,0-1.68,0-2.52a3.4,3.4,0,0,1,3.45-3.49c.82,0,1.15-.21,1.08-1.07s0-1.74,0-2.61c0-.7-.31-1.09-1-1.09h-3.31a1.69,1.69,0,0,0-1.24.69,5.66,5.66,0,1,1-.33-8.06,3,3,0,0,0,2.61,1c.75-.06,1.51,0,2.26,0a1,1,0,0,0,1.13-.84,3.92,3.92,0,0,1,7.62,0,1,1,0,0,0,1.06.81c1.1,0,2.2,0,3.3,0,.65,0,1-.4,1.38-.79a5.67,5.67,0,0,1,9.51,2.63,5.66,5.66,0,0,1-2.61,6.21,5.54,5.54,0,0,1-6.74-.77,2.7,2.7,0,0,0-2.3-.91c-.84.06-1.68,0-2.52,0a.89.89,0,0,0-1,1c0,1,0,2,0,3,0,.55.25.68.74.7,2.57.11,3.9,1.4,3.76,3.94a4.68,4.68,0,0,0,1.86,4.56,9.5,9.5,0,0,1,2.74,3.88,1.28,1.28,0,0,0,1.35.84c2.23,0,4.47-.07,6.7,0a18.18,18.18,0,0,1,12.79,5.83,18.49,18.49,0,0,1,5.11,10.71,39.59,39.59,0,0,1,.09,4.87,1.06,1.06,0,0,0,.69,1.13,3.43,3.43,0,0,1,2.11,3.39c0,2.41,0,4.82,0,7.22,0,1.27-.46,1.74-1.72,1.74q-7.35,0-14.7,0c-1.33,0-1.78-.45-1.78-1.77,0-2.44,0-4.87,0-7.31a3.44,3.44,0,0,1,2.12-3.3c.36-.18.68-.3.66-.79a28.07,28.07,0,0,0-.1-3.55,6.2,6.2,0,0,0-6.33-5.53c-2.26,0-4.52,0-6.78,0a1.65,1.65,0,0,0-1.45.92,14.33,14.33,0,0,1-22.07,1.68,12.34,12.34,0,0,1-1.57-2,1.25,1.25,0,0,0-1.16-.61c-5.34,0-10.67,0-16,0-.63,0-.78.26-.78.83q0,3.44,0,6.87a5.54,5.54,0,0,1-5.53,5.53c-.61,0-1.22,0-1.83,0-.83,0-1.12-.34-1.12-1.14,0-3.89,0-7.77,0-11.66Zm17.11-4.08c-2.55,0-5.1,0-7.65,0-.75,0-1,.19-1,1q.08,3.12,0,6.26c0,.8.24,1,1,1,5.19,0,10.38,0,15.56,0a3.9,3.9,0,0,1,3.48,1.83A11.62,11.62,0,0,0,112.17,109a11.29,11.29,0,0,0,7.47-5,3.32,3.32,0,0,1,3-1.66c2.4.07,4.81,0,7.21,0a8.33,8.33,0,0,1,8.25,6.64,23.32,23.32,0,0,1,.15,4.42c0,.47.09.78.66.77h7c.45,0,.62-.19.62-.63,0-2.93,0-5.87-1.14-8.64C142.73,98.59,138,95,131.16,94.26a63.51,63.51,0,0,0-7.3-.11,3.2,3.2,0,0,1-3.26-2.07,11.63,11.63,0,0,0-3.55-4.44,2.15,2.15,0,0,0-1.36-.48q-6,0-11.91,0a2.32,2.32,0,0,0-1.51.55,12,12,0,0,0-3.55,4.54,3,3,0,0,1-3,1.89C93.29,94.09,90.88,94.13,88.48,94.13Zm27.77-22.39a5.37,5.37,0,0,1,5,1.65c1.18,1.26,3.34.91,4.51-.42a3.33,3.33,0,0,0-.12-4.56,3.27,3.27,0,0,0-4.81,0,3.79,3.79,0,0,1-3.23,1.33c-1-.07-2.09,0-3.13,0a2.8,2.8,0,0,1-3.17-2.34,1.9,1.9,0,0,0-.73-1.14c-1-.66-2.11-.17-2.53,1.14a2.78,2.78,0,0,1-3.16,2.34c-.87,0-1.75-.06-2.61,0a4.4,4.4,0,0,1-4-1.5,3.07,3.07,0,0,0-3.77-.51A3.33,3.33,0,0,0,95.37,74,3.21,3.21,0,0,0,98.66,73a3.09,3.09,0,0,1,2.22-1.21c1.5,0,3,0,4.52,0A2.69,2.69,0,0,1,108,74.39c0,.6,0,1.21,0,1.82,0,2.59,0,2.57,2.59,2.51.63,0,.8-.26.78-.84,0-1.07,0-2.15,0-3.22a2.74,2.74,0,0,1,3-2.91ZM73.58,98.22v16.6c0,.39,0,.76.56.75a3.5,3.5,0,0,0,3.35-2.76,16.71,16.71,0,0,0,.14-3.46q0-12.16,0-24.33c0-2.34-1-3.63-3-4-1-.19-1-.16-1,.87Zm68.79,26.41c2,0,4.06,0,6.08,0,.64,0,.88-.19.87-.84,0-1.88,0-3.77,0-5.65,0-1.21-.55-1.74-1.77-1.75q-5.09,0-10.17,0c-1.32,0-1.84.53-1.85,1.86,0,1.82,0,3.64,0,5.47,0,.76.3.92,1,.91C138.44,124.61,140.41,124.63,142.37,124.63ZM109.7,85c1.31,0,2.61,0,3.91,0,2.51,0,2.51,0,2.29-2.52a1.45,1.45,0,0,0-1.55-1.53c-3.1,0-6.2,0-9.3,0a1.44,1.44,0,0,0-1.54,1.53c0,.58,0,1.16,0,1.74s.25.79.83.78C106.11,85,107.91,85,109.7,85Z" transform="translate(-52.8 -37.4)"/><path class="cls-1" d="M137.32,144.33a6.09,6.09,0,0,1,.86-2.53,26.53,26.53,0,0,1,2.95-4,1.15,1.15,0,0,1,1.69-.28c.57.39.58,1.08.05,1.75a33.06,33.06,0,0,0-2.74,3.7,2.41,2.41,0,0,0,.17,3c.58.74.55,1.42,0,1.83s-1.24.16-1.74-.38A5.18,5.18,0,0,1,137.32,144.33Z" transform="translate(-52.8 -37.4)"/><path class="cls-1" d="M119.54,170.88a66.74,66.74,0,1,1,66.74-66.74A66.82,66.82,0,0,1,119.54,170.88Zm0-130.79a64,64,0,1,0,64,64.05A64.12,64.12,0,0,0,119.54,40.09Z" transform="translate(-52.8 -37.4)"/></svg>