<svg id="Layer_1" data-name="Layer 1" xmlns="http://www.w3.org/2000/svg" viewBox="0 0 170.92 154.22"><defs><style>.cls-1{fill:#666;}.cls-2{fill:#00a0b6;}</style></defs><g id="SqSPvv.tif"><path class="cls-1" d="M127.29,46.16c.87.31,1.76.58,2.61.92,4.73,1.94,8.61,4.52,9.47,10.2A63.85,63.85,0,0,0,142,67.49a31.5,31.5,0,0,1,.21,18.32c-1.21,4.46-2.22,9-3.52,13.42-.67,2.29-.3,3.09,2.27,3.07,14-.1,28,.19,42-.17,7.12-.18,11.8,2.28,13.94,9.14v5.57c-1,2.91-2.08,5.77-4.55,7.82-.94.78-.55,1.6-.2,2.5,2.93,7.71,1.66,13.19-4.41,18.39-1.05.9-.83,1.63-.53,2.65,1.77,6.09,1.48,11.75-3.55,16.36a1.8,1.8,0,0,0-.51,2c.32,1.34.59,2.71.78,4.08,1.35,10-3.89,16.09-14,16.32-3.34.08-6.68,0-10,0-17.62,0-35.25-.13-52.87,0-4.39,0-8.22-.84-11.69-3.48a36.62,36.62,0,0,0-3.44-2.35c-3-1.79-5.26-.55-5.29,2.93s.05,6.86,0,10.29-1,4.26-4.38,4.27c-14.19,0-28.38,0-42.57,0-2.76,0-4.23-.87-4.51-3.92-1.12-12.45-2.46-24.87-3.71-37.31S29,132.6,27.72,120.16c-.36-3.54.38-4.54,4-4.54q25.32,0,50.64,0c.55,0,1.11.08,1.66.07,1.24,0,2.08,1.69,3.58.66,2.05-1.41,4.17-2.52,5.54-4.87q8.17-14.06,16.76-27.88A16,16,0,0,0,112.79,74c-.26-4.8.18-9.65-.13-14.45-.43-6.34,3.15-9.73,8.17-12.28.82-.42,1.71-.72,2.56-1.07Zm10.57,135.78h0c11.22,0,22.44.07,33.66,0,5.48-.05,7.53-2.26,7.56-7.66,0-1.3,0-2.59-.06-3.89,0-1.71-.45-3.06-2.5-3.41a2.32,2.32,0,0,1-2.15-2.74c.18-1.51,1.27-1.79,2.57-2,4.36-.66,6.07-2.39,6.42-6.31.53-6-.29-7.46-4.9-9-1.24-.42-2.16-1.23-2-2.64s1.2-2,2.57-2c.93,0,1.86,0,2.78,0,4.09-.08,5.9-1.6,6.76-5.55a14.32,14.32,0,0,0,.17-5c-.37-2.74-1.3-4.8-4.6-4.81a2.17,2.17,0,0,1-2.24-2.37c0-1.53,1.09-2.25,2.6-2.3.65,0,1.3,0,1.95-.07a5.58,5.58,0,0,0,4.92-3.54c3-6.68-.18-11.7-7.38-11.7q-23.94,0-47.86,0c-3.74,0-4.45-1.09-3.22-4.62,2.05-5.87,3.32-12,4.89-18a28.37,28.37,0,0,0-.42-15.87c-1.11-3.63-1.94-7.34-2.92-11s-5.78-6.91-9.54-6.49a8.31,8.31,0,0,0-7.49,8.37c0,5.47-.09,10.94,0,16.41a14,14,0,0,1-2.12,7.9c-5.46,8.93-11,17.83-16.17,26.94a24.55,24.55,0,0,1-9.92,10.14c-2.08,1.1-2.69,2.7-2.68,5,.09,11.68,0,23.36,0,35q0,6.12,0,12.24c0,1.21,0,2.79,1.65,2.65,4-.34,6.9,1.85,9.79,4a12.13,12.13,0,0,0,7.78,2.3C116.53,181.87,127.19,181.94,137.86,181.94ZM81.61,157.31c0-11.31,0-22.63,0-33.94,0-2.23-.67-3.1-3-3.09q-21.42.14-42.86,0c-2.59,0-3.21,1-3,3.3.85,7.92,1.6,15.85,2.39,23.77,1.43,14.47,2.92,28.94,4.23,43.42.22,2.54,1.11,3.29,3.58,3.27q17.67-.15,35.34,0c2.59,0,3.35-.83,3.33-3.35C81.56,179.57,81.62,168.44,81.61,157.31Z" transform="translate(-26.8 -45.32)"/><path class="cls-1" d="M39.6,199.55c-3.42,0-5-1.4-5.3-4.68-.77-8.48-1.65-17.1-2.5-25.43q-.61-5.94-1.21-11.88-.7-7.09-1.4-14.19c-.74-7.58-1.51-15.42-2.3-23.12-.17-1.61-.19-3.24.75-4.28.76-.84,1.95-1.19,4.1-1.19H82.39c.28,0,.55,0,.83,0a7.49,7.49,0,0,0,.82,0,3.45,3.45,0,0,1,1.75.61c.72.43.93.5,1.37.2l1-.7a12.09,12.09,0,0,0,4.24-3.9c5.26-9,10.91-18.42,16.78-27.9,2.07-3.35,2.89-6.08,2.73-9.14-.12-2.32-.08-4.68,0-7,0-2.47.08-5-.08-7.5-.5-7.45,4.35-10.9,8.63-13.08.6-.3,1.22-.54,1.82-.78l.8-.31.16-.07h4.2l.14,0,.82.28c.6.2,1.22.41,1.83.66,4.39,1.79,9,4.49,10,10.85a64.64,64.64,0,0,0,2.61,10.07A32.05,32.05,0,0,1,143,86c-.49,1.8-.95,3.64-1.4,5.43-.66,2.63-1.35,5.35-2.13,8-.35,1.22-.27,1.59-.18,1.7s.34.31,1.65.29c5.31,0,10.71,0,15.93,0,8.53,0,17.35.05,26-.17,7.93-.21,12.62,2.89,14.76,9.73l0,.13V117l-.05.13c-1.11,3.22-2.24,6.07-4.81,8.2-.37.3-.37.46,0,1.38l.06.17c3.09,8.12,1.7,13.89-4.65,19.33-.63.54-.55.8-.27,1.76,2.13,7.32.89,13-3.79,17.23-.31.28-.41.51-.25,1.18.35,1.53.61,2.89.79,4.17.69,5.12-.3,9.42-2.88,12.45s-6.71,4.7-11.91,4.82c-2.36,0-4.76,0-7.09,0h-2.94l-14.46,0c-12.59,0-25.6-.06-38.4.07-5,.07-8.88-1.11-12.2-3.65a37,37,0,0,0-3.37-2.3c-1.21-.71-2.26-.88-2.95-.49s-1.06,1.34-1.07,2.71,0,2.69,0,4c0,2.05,0,4.17,0,6.26-.1,3.85-1.36,5.08-5.22,5.09H63.83c-7.93,0-16.13,0-24.19,0Zm14.22-83.1H31.75c-1.59,0-2.47.19-2.87.63s-.49,1.36-.33,3c.8,7.71,1.56,15.55,2.31,23.13q.69,7.09,1.4,14.19c.39,3.95.8,7.91,1.2,11.87.86,8.33,1.74,17,2.51,25.45.21,2.38,1.1,3.15,3.63,3.15h0c8.06,0,16.26,0,24.19,0H82.21c3,0,3.47-.49,3.54-3.45,0-2.07,0-4.18,0-6.22,0-1.35,0-2.7,0-4.06,0-2,.7-3.46,1.92-4.15s2.88-.52,4.63.51a35.75,35.75,0,0,1,3.53,2.4c3.06,2.34,6.51,3.36,11.17,3.31,12.81-.12,25.83-.09,38.42-.07l14.46,0h3c2.31,0,4.7,0,7,0,4.7-.1,8.39-1.57,10.66-4.23s3.13-6.5,2.5-11.14c-.17-1.22-.42-2.53-.77-4a2.66,2.66,0,0,1,.76-2.81c4.22-3.86,5.27-8.78,3.31-15.51-.31-1.07-.66-2.27.79-3.52,5.8-5,7-10,4.17-17.45l-.06-.16c-.33-.86-.83-2.17.51-3.28,2.2-1.83,3.24-4.4,4.25-7.32v-5.3c-1.92-6-5.95-8.62-13.08-8.43-8.68.22-17.51.19-26.06.16-5.21,0-10.61,0-15.91,0-1.13,0-2.35-.1-3-1s-.42-2-.09-3.18c.77-2.63,1.45-5.33,2.11-8,.46-1.79.92-3.64,1.41-5.46a30.48,30.48,0,0,0-.2-17.84,65.26,65.26,0,0,1-2.68-10.34c-.83-5.52-4.8-7.85-9-9.55-.56-.23-1.12-.42-1.73-.62l-.7-.24h-3.59l-.68.27a15.81,15.81,0,0,0-1.67.71c-5.75,2.92-8.06,6.35-7.72,11.47.17,2.55.13,5.13.09,7.63,0,2.25-.08,4.58,0,6.84.18,3.38-.74,6.5-3,10.11-5.87,9.47-11.51,18.84-16.76,27.86a13.56,13.56,0,0,1-4.76,4.45l-1,.69a2.64,2.64,0,0,1-3.18-.14,2.1,2.1,0,0,0-.86-.37c-.32,0-.64,0-.95,0l-.73,0H53.82Zm24.62,78.44h-.12c-11-.12-22.6-.12-35.33,0-2.92,0-4.16-1.11-4.42-4-1-10.92-2.09-22-3.16-32.74-.36-3.55-.72-7.11-1.07-10.66-.19-2-.39-4-.58-5.94-.57-5.85-1.17-11.89-1.8-17.83a4.13,4.13,0,0,1,.67-3.24,3.94,3.94,0,0,1,3.13-1c13.39.1,27.41.1,42.85,0a3.91,3.91,0,0,1,3,.91,4.1,4.1,0,0,1,.91,3c0,8.37,0,16.88,0,25.12,0,2.94,0,5.87,0,8.81h0q0,4.62,0,9.23c0,7.92,0,16.1.06,24.15a4.45,4.45,0,0,1-1,3.25A4.15,4.15,0,0,1,78.44,194.89Zm-17.62-1.77c6,0,11.84,0,17.52.09a2.81,2.81,0,0,0,2-.46,3,3,0,0,0,.45-2.05c-.07-8-.06-16.24,0-24.16v-9.23h0V148.5c0-8.24,0-16.76,0-25.13a2.66,2.66,0,0,0-.42-1.83,2.57,2.57,0,0,0-1.77-.42c-15.45.1-29.47.09-42.87,0a2.61,2.61,0,0,0-1.88.45,2.65,2.65,0,0,0-.24,1.93c.63,6,1.22,12,1.8,17.85.19,2,.38,3.95.58,5.93.35,3.56.71,7.11,1.06,10.67,1.08,10.73,2.19,21.83,3.17,32.75.19,2.08.68,2.55,2.74,2.51C49.18,193.15,55.1,193.12,60.82,193.12Zm44.83-10.3a12.74,12.74,0,0,1-8.07-2.47l-.11-.08c-2.81-2.09-5.47-4.06-9.11-3.76A2.2,2.2,0,0,1,86.6,176a3.69,3.69,0,0,1-.8-2.84V173q0-4.75,0-9.51v-12c0-8.45,0-17.19,0-25.79A5.75,5.75,0,0,1,88.87,120c3.91-2.06,6.95-5.18,9.58-9.82,4.24-7.46,8.8-14.9,13.21-22.1l3-4.86a13.13,13.13,0,0,0,2-7.44c-.1-3.94-.08-7.94-.06-11.81,0-1.54,0-3.08,0-4.62a9.16,9.16,0,0,1,8.23-9.21c4.2-.46,9.37,3.06,10.45,7.12.33,1.24.65,2.49,1,3.74.6,2.39,1.22,4.86,2,7.24a29,29,0,0,1,.43,16.33c-.43,1.63-.83,3.27-1.23,4.9-1.07,4.34-2.18,8.81-3.68,13.13-.53,1.5-.64,2.48-.35,2.89s1.22.61,2.78.62q15.59,0,31.17,0H184c3.74,0,6.64,1.31,8.17,3.67s1.56,5.68,0,9.21a6.48,6.48,0,0,1-5.62,4c-.45,0-.9,0-1.33,0h-.66c-1.75.06-1.78,1.11-1.8,1.5a1.49,1.49,0,0,0,.38,1.1,1.39,1.39,0,0,0,1,.4c4.16,0,5.08,3,5.43,5.54a15.07,15.07,0,0,1-.18,5.25c-1,4.38-3.08,6.12-7.56,6.22-.93,0-1.87,0-2.8,0-1.41,0-1.67.63-1.74,1.24,0,.33-.13,1.22,1.44,1.76,5,1.7,6,3.55,5.46,9.89-.38,4.31-2.44,6.36-7.12,7.06-1.43.22-1.77.45-1.87,1.26,0,.38-.19,1.53,1.46,1.82,2.76.47,3.16,2.5,3.2,4.21l0,.95c0,1,.05,2,0,3,0,5.9-2.54,8.44-8.39,8.48-7.95.07-16,.06-23.85,0h-9.82l-.84,0h-7.91c-7.62,0-15.5,0-23.24.06Zm-16.55-8c3.82,0,6.64,2.1,9.37,4.13l.11.08a11.21,11.21,0,0,0,7.27,2.13c7.76-.08,15.64-.06,23.26,0h8.75l.84,0h9c7.81,0,15.89,0,23.84,0,4.94,0,6.7-1.83,6.72-6.82,0-1,0-2,0-2.92l0-.95c0-1.75-.47-2.38-1.8-2.6a3.15,3.15,0,0,1-2.85-3.67c.28-2.26,2.16-2.54,3.29-2.71,4-.6,5.39-2,5.7-5.56.5-5.57-.11-6.72-4.33-8.15-1.83-.63-2.74-1.88-2.56-3.53s1.43-2.73,3.4-2.73c.93,0,1.84,0,2.77,0,3.67-.07,5.17-1.31,5.95-4.89a13.27,13.27,0,0,0,.16-4.68c-.41-3-1.39-4.07-3.78-4.08a3.05,3.05,0,0,1-2.22-.91,3.14,3.14,0,0,1-.85-2.32c.06-1.89,1.33-3.05,3.41-3.12l.7,0c.42,0,.82,0,1.21,0a4.76,4.76,0,0,0,4.23-3c1.34-3,1.39-5.7.15-7.62s-3.62-2.9-6.77-2.9H167.3q-15.59,0-31.17,0c-1.59,0-3.32-.16-4.15-1.32s-.4-2.89.14-4.41c1.47-4.24,2.57-8.68,3.63-13,.41-1.64.81-3.28,1.24-4.92a27.53,27.53,0,0,0-.41-15.41c-.74-2.43-1.37-4.92-2-7.33-.31-1.24-.62-2.48-.95-3.72-.86-3.23-5.3-6.26-8.64-5.88a7.48,7.48,0,0,0-6.74,7.54c0,1.54,0,3.08,0,4.62,0,3.86,0,7.85.06,11.77a14.83,14.83,0,0,1-2.24,8.35c-1,1.63-2,3.25-3,4.87-4.41,7.18-9,14.61-13.18,22-2.79,4.92-6,8.25-10.26,10.47-1.62.86-2.25,2-2.23,4.24.07,8.6.06,17.34,0,25.8,0,3.08,0,6.17,0,9.25v2.73q0,4.75,0,9.5v.12c0,.56,0,1.39.26,1.62a.75.75,0,0,0,.49.08C88.52,174.82,88.81,174.8,89.1,174.8Z" transform="translate(-26.8 -45.32)"/><path class="cls-2" d="M67.26,186a8.51,8.51,0,0,1-8.58-8.36,9,9,0,0,1,8.3-8.54c4.31-.12,8.58,4.1,8.62,8.52A8.69,8.69,0,0,1,67.26,186Zm3.61-8.42a3.7,3.7,0,0,0-3.93-3.74c-2.17.26-3.54,1.46-3.53,3.83s1.48,3.71,3.89,3.6A3.4,3.4,0,0,0,70.87,177.6Z" transform="translate(-26.8 -45.32)"/><path class="cls-2" d="M67.16,186.86a9.43,9.43,0,0,1-6.59-2.75,9,9,0,0,1-2.73-6.45A9.84,9.84,0,0,1,67,168.28,9,9,0,0,1,73.39,171a9.08,9.08,0,0,1-6.12,15.87h-.11Zm0-16.9H67a8.2,8.2,0,0,0-7.49,7.7,7.36,7.36,0,0,0,2.24,5.26,7.69,7.69,0,0,0,5.5,2.26h0a7.4,7.4,0,0,0,5-13A7.52,7.52,0,0,0,67.15,170ZM67,182.14a4.17,4.17,0,0,1-4.46-4.45c0-2.63,1.53-4.33,4.26-4.66a4.11,4.11,0,0,1,3.22,1,4.81,4.81,0,0,1,1.65,3.53h0a4.24,4.24,0,0,1-4.37,4.55Zm.28-7.46H67c-1.91.23-2.8,1.18-2.79,3a2.81,2.81,0,0,0,.76,2.11,3,3,0,0,0,2.25.67A2.6,2.6,0,0,0,70,177.62h0A3.26,3.26,0,0,0,69,175.31,2.52,2.52,0,0,0,67.32,174.68Z" transform="translate(-26.8 -45.32)"/><path class="cls-2" d="M49,129.28H41.76c-1.43,0-2.69-.45-2.81-2s1.13-2.52,2.64-2.55q7.47-.12,14.94,0c1.51,0,2.79.8,2.68,2.53-.1,1.58-1.36,2.06-2.79,2.06Z" transform="translate(-26.8 -45.32)"/><path class="cls-2" d="M44.62,130.12H41.75c-3,0-3.56-1.77-3.64-2.81a3.1,3.1,0,0,1,.74-2.37,3.71,3.71,0,0,1,2.73-1.09c4.89-.08,9.93-.08,15,0a3.76,3.76,0,0,1,2.75,1.08,3.08,3.08,0,0,1,.76,2.34c-.12,1.8-1.44,2.84-3.63,2.85H44.62Zm4.51-4.66c-2.53,0-5.05,0-7.52.06a2.07,2.07,0,0,0-1.52.54,1.45,1.45,0,0,0-.31,1.11c0,.41.1,1.26,2,1.27H56.42c1.87,0,1.93-.9,1.95-1.28a1.4,1.4,0,0,0-.31-1.09,2.12,2.12,0,0,0-1.54-.54C54.05,125.48,51.58,125.46,49.13,125.46Z" transform="translate(-26.8 -45.32)"/><path class="cls-2" d="M66.59,129.27c-.73,0-1.47,0-2.2,0-1.45,0-2.61-.62-2.62-2.21s1.16-2.25,2.56-2.36a23.62,23.62,0,0,1,4.12,0c1.5.14,2.75.83,2.6,2.58s-1.4,2-2.8,2H66.59Z" transform="translate(-26.8 -45.32)"/><path class="cls-2" d="M67.63,130.12H65.75c-.46,0-.93,0-1.39,0-2.17-.08-3.42-1.19-3.43-3s1.27-3,3.34-3.2a26.29,26.29,0,0,1,4.26,0c2.27.21,3.52,1.52,3.36,3.49-.15,1.81-1.37,2.74-3.63,2.77Zm-.2-1.68h.8c1.74,0,1.94-.62,2-1.23,0-.45.12-1.49-1.84-1.68a24,24,0,0,0-4,0c-1.19.09-1.79.61-1.79,1.52,0,.43,0,1.32,1.81,1.39.49,0,1,0,1.48,0h1.53Z" transform="translate(-26.8 -45.32)"/></g></svg>