<svg id="Layer_1" data-name="Layer 1" xmlns="http://www.w3.org/2000/svg" viewBox="0 0 133.48 172.99"><defs><style>.cls-1{font-size:21.9px;font-family:Objectivity-Bold, Objectivity;font-weight:700;letter-spacing:-0.07em;}.cls-1,.cls-2{fill:#333;}</style></defs><text class="cls-1" transform="translate(36.98 165.68)">LUKU</text><path class="cls-2" d="M116.24,152.69a14.52,14.52,0,0,1-8.35-4.42A14.72,14.72,0,0,1,104,137.53c0-.82.54-.82,1.11-.82h27.08c1.24,0,1.28,0,1.29,1.27a14.25,14.25,0,0,1-11.94,14.62,1.06,1.06,0,0,0-.25.09Zm2.54-12.14c-3.26,0-6.53,0-9.8,0-.75,0-1,.23-.72,1a12,12,0,0,0,1,2.33c2.32,3.77,5.76,5.3,10.11,5.19a10.48,10.48,0,0,0,9.87-7.33c.33-1,.26-1.15-.84-1.15Z" transform="translate(-53.1 -37.36)"/><path class="cls-2" d="M119.51,59.64a2.36,2.36,0,0,1,1.16,2.29c0,1.78,0,3.56,0,5.35a1.88,1.88,0,1,1-3.73,0c0-1.79,0-3.57,0-5.35a2.35,2.35,0,0,1,1.16-2.29Z" transform="translate(-53.1 -37.36)"/><path class="cls-2" d="M118.66,125.67c-4.42,0-8.84,0-13.26,0-.9,0-1.25-.23-1.2-1.17a12.64,12.64,0,0,0-3.81-9.57,24.8,24.8,0,0,1-7-19.66,25.33,25.33,0,0,1,20.29-23A25.49,25.49,0,0,1,144,93.45a24.51,24.51,0,0,1-6.6,21.25c-2.67,2.83-4.21,5.94-4,9.84,0,.9-.33,1.14-1.16,1.13-4.52,0-9,0-13.54,0Zm.1-3.74c3.33,0,6.66,0,10,0,.6,0,1-.14,1.06-.81a16.23,16.23,0,0,1,4.61-8.77,20.9,20.9,0,0,0,5.88-18,21.65,21.65,0,0,0-25-18.52,21.89,21.89,0,0,0-18.26,20.6,21.45,21.45,0,0,0,6.1,15.94,16.36,16.36,0,0,1,4.56,8.52c.14.79.44,1.06,1.23,1C112.21,121.91,115.49,121.93,118.76,121.93Z" transform="translate(-53.1 -37.36)"/><path class="cls-2" d="M118.82,126.87h13.09c1.24,0,1.27,0,1.28,1.26,0,.52,0,1,0,1.55.07.79-.27,1.07-1,1.06-2.36,0-4.73,0-7.09,0H105.71c-1.33,0-1.36,0-1.33-1.3.05-2.95-.48-2.52,2.54-2.54C110.88,126.84,114.85,126.87,118.82,126.87Z" transform="translate(-53.1 -37.36)"/><path class="cls-2" d="M118.8,135.47H105.64c-1.23,0-1.26,0-1.26-1.27,0-.4,0-.79,0-1.18,0-1.3.16-1.41,1.48-1.37,3.47.1,6.94.06,10.42,0,2.74,0,5.49,0,8.24,0,2.56,0,5.13,0,7.7,0,.75,0,1,.27,1,1a11.1,11.1,0,0,0,0,1.73c.06.8-.29,1-1.06,1-4.45,0-8.9,0-13.34,0Z" transform="translate(-53.1 -37.36)"/><path class="cls-2" d="M143.7,69.78a2.23,2.23,0,0,1-.54,1.35c-1.26,1.51-2.5,3-3.79,4.51a1.83,1.83,0,0,1-2.66.28,1.78,1.78,0,0,1-.27-2.59c1.28-1.6,2.61-3.17,3.95-4.72a1.77,1.77,0,0,1,2.14-.5A1.88,1.88,0,0,1,143.7,69.78Z" transform="translate(-53.1 -37.36)"/><path class="cls-2" d="M93,84.23a2.11,2.11,0,0,1-1.12-.32c-1.67-1-3.34-1.93-5-2.92a1.87,1.87,0,0,1,.56-3.49,1.7,1.7,0,0,1,1.3.25c1.75,1,3.51,2,5.25,3a1.85,1.85,0,0,1-1,3.45Z" transform="translate(-53.1 -37.36)"/><path class="cls-2" d="M153.83,105.37c-2.1-.39-4.22-.73-6.31-1.19a1.78,1.78,0,0,1-1.29-2.19,1.86,1.86,0,0,1,2.12-1.43c2,.32,3.92.67,5.88,1a1.87,1.87,0,0,1,1.65,1.48,1.83,1.83,0,0,1-.67,1.86A2.25,2.25,0,0,1,153.83,105.37Z" transform="translate(-53.1 -37.36)"/><path class="cls-2" d="M95.53,68a1.93,1.93,0,0,1,1.71.71c1.31,1.54,2.62,3.08,3.89,4.66a1.75,1.75,0,0,1-.22,2.52,1.71,1.71,0,0,1-2.52,0c-1.45-1.62-2.83-3.3-4.2-5a1.62,1.62,0,0,1-.08-1.88A1.77,1.77,0,0,1,95.53,68Z" transform="translate(-53.1 -37.36)"/><path class="cls-2" d="M144.54,84.24A1.81,1.81,0,0,1,142.78,83a1.67,1.67,0,0,1,.63-2.09q2.81-1.74,5.72-3.31a1.78,1.78,0,0,1,2.28.75,1.66,1.66,0,0,1-.28,2.23,42.85,42.85,0,0,1-6.07,3.56A1.53,1.53,0,0,1,144.54,84.24Z" transform="translate(-53.1 -37.36)"/><path class="cls-2" d="M84.05,89.21c1.73.32,3.87.66,6,1.12a1.78,1.78,0,0,1,1.29,2.19A1.91,1.91,0,0,1,89.2,94c-2-.32-4-.67-6-1.06a1.82,1.82,0,0,1-1.56-2.1C81.78,89.81,82.55,89.19,84.05,89.21Z" transform="translate(-53.1 -37.36)"/><path class="cls-2" d="M106.56,61.75a1.65,1.65,0,0,1,1.65,1.07c.76,2,1.51,4,2.19,6a1.82,1.82,0,0,1-1.15,2.28,1.8,1.8,0,0,1-2.34-1c-.77-2-1.51-4-2.16-6A1.79,1.79,0,0,1,106.56,61.75Z" transform="translate(-53.1 -37.36)"/><path class="cls-2" d="M153.76,89.2c1.25,0,2,.61,2.13,1.55a1.71,1.71,0,0,1-1.35,2.06c-2.12.45-4.26.82-6.41,1.14a1.86,1.86,0,0,1-.48-3.67c1.59-.34,3.2-.59,4.81-.88Z" transform="translate(-53.1 -37.36)"/><path class="cls-2" d="M83.92,105.31c-1.35,0-2.14-.62-2.25-1.59a1.78,1.78,0,0,1,1.47-2.07c2-.41,4.09-.77,6.15-1.11a1.93,1.93,0,0,1,2,1.44,1.79,1.79,0,0,1-1.2,2.16,21.92,21.92,0,0,1-2.56.53C86.26,104.91,85,105.13,83.92,105.31Z" transform="translate(-53.1 -37.36)"/><path class="cls-2" d="M128.94,71.16a1.79,1.79,0,0,1-1.76-2.37c.65-2,1.4-4,2.17-6a1.79,1.79,0,0,1,2.28-1A1.74,1.74,0,0,1,132.82,64c-.67,2.09-1.45,4.16-2.25,6.22A1.6,1.6,0,0,1,128.94,71.16Z" transform="translate(-53.1 -37.36)"/><path class="cls-2" d="M119.19,81.12c0,1.23,0,1.23-1.26,1.29-6.29.3-11.94,5.22-13.42,11.69a4.39,4.39,0,0,0-.2,1.07c0,.73-.38.9-1,.88-1.63,0-1.69-.11-1.43-1.72a17.61,17.61,0,0,1,15.09-14.4c.27,0,.54-.09.81-.12C119.05,79.66,119.18,79.78,119.19,81.12Z" transform="translate(-53.1 -37.36)"/><path class="cls-2" d="M119.85,170.84a66.74,66.74,0,1,1,66.74-66.74A66.82,66.82,0,0,1,119.85,170.84Zm0-130.78a64,64,0,1,0,64,64A64.12,64.12,0,0,0,119.85,40.06Z" transform="translate(-53.1 -37.36)"/></svg>