<svg id="Layer_1" data-name="Layer 1" xmlns="http://www.w3.org/2000/svg" viewBox="0 0 133.48 196.02"><defs><style>.cls-1{font-size:21.9px;font-family:Objectivity-Bold, Objectivity;font-weight:700;letter-spacing:-0.07em;}.cls-1,.cls-2{fill:#333;}</style></defs><text class="cls-1" transform="translate(10.14 166)">MALIPO YA<tspan x="12.51" y="22.7">SERIKALI</tspan></text><path class="cls-2" d="M121,157.25a66.75,66.75,0,1,1,66.74-66.74A66.82,66.82,0,0,1,121,157.25Zm0-130.79a64,64,0,1,0,64,64.05A64.12,64.12,0,0,0,121,26.46Z" transform="translate(-54.28 -23.76)"/><path class="cls-2" d="M158,80.5a2.53,2.53,0,0,0-2.89-2.82h-9.75c-.95,0-1,0-1-1,0-1.39,0-2.79,0-4.19a2.52,2.52,0,0,0-2.68-2.59h-6.48c-4.47,0-8.94,0-13.41,0h-4.61c-5.26,0-10.52,0-15.77,0a2.54,2.54,0,0,0-2.79,2.79c0,1.34,0,2.69,0,4,0,.73-.2,1-.94,1-3.38,0-6.76,0-10.14,0A2.44,2.44,0,0,0,85,80.23c0,3.12,0,6.24,0,9.37v31.08a2.48,2.48,0,0,0,2.65,2.75c.23,0,.45,0,.68,0h48.15q9.34,0,18.67,0a2.54,2.54,0,0,0,2.8-2.71Zm-13.6.73c0-.49.13-.75.68-.75,3.15,0,6.29,0,9.44,0,.49,0,.68.21.67.69,0,1.19,0,2.38,0,3.57,0,.53-.2.72-.72.72-1.57,0-3.15,0-4.72,0s-3.05,0-4.57,0c-.6,0-.8-.22-.79-.8C144.39,83.52,144.38,82.37,144.36,81.23Zm-43-4.46a31.06,31.06,0,0,0,0-3.2c0-.68.21-.87.87-.87,6.93,0,13.87,0,20.8,0h17.45c1,0,1,0,1,1s0,2,0,3.05c.05.75-.23.94-.95.93-6.38,0-12.75,0-19.13,0s-12.75,0-19.12,0C101.66,77.69,101.36,77.53,101.4,76.77Zm40.17,7.92c0,.54-.17.77-.74.77-3.15,0-6.29,0-9.44,0-.52,0-.74-.16-.72-.7,0-1.17,0-2.34,0-3.51,0-.62.24-.78.81-.77,1.55,0,3.1,0,4.65,0s3.09,0,4.64,0c.59,0,.82.17.8.78C141.54,82.4,141.54,83.55,141.57,84.69ZM115.1,81.27c0-.61.22-.79.81-.79q5.59,0,11.19,0c.54,0,.79.17.78.74,0,1.17,0,2.34,0,3.5,0,.58-.23.74-.78.74-1.87,0-3.75,0-5.63,0s-3.65,0-5.48,0c-.72,0-.92-.24-.9-.92C115.14,83.45,115.13,82.36,115.1,81.27Zm-13.69,0c0-.54.15-.78.73-.77,3.15,0,6.29,0,9.44,0,.52,0,.73.17.72.7,0,1.2,0,2.39,0,3.58,0,.55-.22.7-.73.7-1.58,0-3.15,0-4.72,0s-3.1,0-4.65,0c-.58,0-.83-.16-.8-.78C101.45,83.54,101.43,82.39,101.41,81.25Zm-13.69,3.4c.09-1.18-.06-2.37,0-3.57,0-.41.11-.59.55-.59,3.23,0,6.45,0,9.68,0,.46,0,.63.21.62.64,0,1.2,0,2.39,0,3.59,0,.57-.23.74-.77.74-1.58,0-3.15,0-4.73,0s-3.1,0-4.65,0C87.86,85.47,87.68,85.26,87.72,84.65Zm67.43,34.94c0,1,0,1-1.05,1s-2,0-3,0c-.65,0-.88-.17-.88-.86,0-7.16,0-14.32,0-21.48,0-1.63,0-3.25,0-4.88,0-.58-.19-.83-.79-.82-2.37,0-2-.26-2,1.95,0,8.36,0,16.71,0,25.07,0,1,0,1-1,1s-2,0-3,0c-.74,0-1-.17-1-1,0-7.62,0-15.24,0-22.86,0-1.14,0-2.29,0-3.43,0-.54-.2-.78-.76-.77-2.44,0-2.05-.26-2.05,2q0,12.49,0,25c0,1,0,1-1.05,1s-2,0-3,0c-.64,0-.89-.16-.89-.85,0-6,0-12,0-18.06V93.6c0-.93-.05-1-1-1-2.08,0-1.79-.19-1.79,1.78q0,12.61,0,25.22c0,1,0,1-1,1s-2,0-3,0c-.73,0-1-.21-1-.94,0-5.39,0-10.77,0-16.16q0-4.87,0-9.75c0-1.12,0-1.16-1.14-1.17-1.91,0-1.65-.09-1.65,1.61q0,12.72,0,25.45c0,.78-.23,1-1,1a31.05,31.05,0,0,0-3.2,0c-.69,0-.92-.18-.91-.9,0-5.89,0-11.78,0-17.67,0-2.85,0-5.69,0-8.54,0-.68-.19-1-.9-.93-2.09,0-1.9-.24-1.9,1.86q0,12.58,0,25.15c0,1,0,1-1,1s-2.08,0-3.12,0c-.69,0-.87-.21-.87-.86,0-7.37,0-14.73,0-22.1,0-1.42,0-2.85,0-4.27,0-.53-.15-.8-.73-.79-2.42,0-2.07-.25-2.07,2q0,12.57,0,25.14c0,.68-.16,1-.89.93a28.47,28.47,0,0,0-3.2,0c-.72,0-.91-.23-.91-.92q0-7.12,0-14.24c0-4,0-8,0-12,0-.71-.26-.92-.94-.91-2.19,0-1.88-.22-1.88,1.85q0,12.5,0,25c0,1.18,0,1.18-1.15,1.18s-2,0-3,0c-.68,0-.88-.21-.88-.87q0-9.35,0-18.67c0-2.52,0-5,0-7.54,0-.74-.25-1-1-1-2.15.06-1.83-.19-1.84,1.83q0,12.61,0,25.22c0,.74-.16,1-1,1-1.11-.07-2.23,0-3.35,0-.55,0-.78-.2-.78-.76q0-4,.05-8.06c0-2.28,0-4.56,0-6.84,0-2.77,0-5.53,0-8.3,0-1.24,0-2.48,0-3.72s0-2.74,0-4.11c0-.69.46-.61.89-.61l15.54,0h17.35v0h32.74c.72,0,1,.19,1,.94Q155.15,104.39,155.15,119.59Z" transform="translate(-54.28 -23.76)"/><path class="cls-2" d="M136.58,56.14a1.26,1.26,0,0,0-1-1.44c-1.13-.36-2.24-.82-3.36-1.24a7.15,7.15,0,0,0-5.41.33,4.72,4.72,0,0,1-4,.05c-1.2-.54-2.46-1-3.7-1.41-.94-.34-1-.32-1,.7,0,5,0,10.09,0,15.14h2.82c0-.6,0-1.21,0-1.81,0-1,0-1,.92-.64a7.19,7.19,0,0,0,6.05,0c.23-.1.49-.16.72-.24a4.24,4.24,0,0,1,3.19.09c1.25.51,2.51,1,3.77,1.46.94.36,1,.34,1-.65C136.57,63,136.55,59.57,136.58,56.14Zm-3.42,7a7.41,7.41,0,0,0-6.48.08,4.69,4.69,0,0,1-3.62.06c-2.13-.8-2.14-.77-2.13-3v-1c0-.84,0-1.68,0-2.52,0-.47.09-.68.6-.45a7.57,7.57,0,0,0,6.63-.07c1.93-.92,3.6,0,5.31.67.29.11.32.37.32.63,0,1.75,0,3.51,0,5.26C133.78,63.33,133.55,63.37,133.16,63.18Z" transform="translate(-54.28 -23.76)"/></svg>