<svg id="Layer_1" data-name="Layer 1" xmlns="http://www.w3.org/2000/svg" viewBox="0 0 146.74 174.33"><defs><style>.cls-1,.cls-2{fill:#333;}.cls-2{font-size:21.9px;font-family:Objectivity-Bold, Objectivity;font-weight:700;letter-spacing:-0.07em;}</style></defs><path class="cls-1" d="M121.73,97.44a18.54,18.54,0,0,0-6.27-14,18.66,18.66,0,0,0,0,27.89A18.53,18.53,0,0,0,121.73,97.44Z" transform="translate(-44.68 -30.91)"/><path class="cls-1" d="M106.47,97.44a21.24,21.24,0,0,1,7.45-16.18,20,20,0,1,0,0,32.35A21.23,21.23,0,0,1,106.47,97.44Z" transform="translate(-44.68 -30.91)"/><path class="cls-1" d="M124.36,97.44a21.24,21.24,0,0,0-7.45-16.18,20,20,0,1,1,0,32.35A21.23,21.23,0,0,0,124.36,97.44Z" transform="translate(-44.68 -30.91)"/><text class="cls-2" transform="translate(0 167.02)">MASTERPASS</text><path class="cls-1" d="M115.55,164.39a66.74,66.74,0,1,1,66.74-66.74A66.82,66.82,0,0,1,115.55,164.39Zm0-130.79A64,64,0,1,0,179.6,97.65,64.12,64.12,0,0,0,115.55,33.6Z" transform="translate(-44.68 -30.91)"/></svg>