<svg id="Layer_1" data-name="Layer 1" xmlns="http://www.w3.org/2000/svg" viewBox="0 0 129.37 180.72"><defs><style>.cls-1{fill:#666;}.cls-2{fill:#00a0b6;}</style></defs><g id="uIV3zB.tif"><path class="cls-1" d="M62.11,122.3c0-24,0-48.07,0-72.1,0-5.93,1.69-11,6.47-14.67,3.5-2.71,7.58-3.46,11.92-3.45q32.48,0,64.95,0a19.67,19.67,0,0,1,7.72,1.3c6.7,2.8,10.05,8,10.35,15.12.27,6.34.06,12.71.06,19.07a4.47,4.47,0,0,1,0,.73,3,3,0,0,1-3,2.85,2.81,2.81,0,0,1-2.86-3c-.1-3.12-.1-6.24,0-9.36,0-1.5-.5-2-2-2q-42.66.06-85.32,0c-1.69,0-2.21.53-2.2,2.2q0,32.21,0,64.4,0,26.52,0,53c0,2.37,0,2.4,2.31,2.4q42.48,0,85,0c1.8,0,2.32-.55,2.27-2.3-.1-4.15-.06-8.31,0-12.47,0-2,1.17-3.17,2.82-3.22s2.94,1.14,3.11,3.14c0,.3,0,.61,0,.91,0,6,0,12,0,18q0,6.33,0,12.66c0,9.93-7.25,17.2-17.14,17.2q-33.57,0-67.15,0c-10.11,0-17.17-7.17-17.16-17.27q0-36.6,0-73.21Zm50.69,84.51v0c11.62,0,23.24,0,34.86,0a10.12,10.12,0,0,0,9.88-9.85c.07-3.36,0-6.73.07-10.09.07-1.77-.52-2.27-2.29-2.27-19,.06-38,0-57.06,0H70.18c-1.08,0-2.14-.09-2.12,1.5.06,4,0,8.08.14,12.11a7.58,7.58,0,0,0,1.9,4.48,10.43,10.43,0,0,0,8.75,4.17C90.17,206.76,101.48,206.81,112.8,206.81Zm-.13-155.69h42.92c1,0,1.88.08,2-1.42a10.46,10.46,0,0,0-10.43-11.59q-34.38,0-68.76,0A10.19,10.19,0,0,0,68.07,48.45c0,2.6,0,2.68,2.61,2.68Z" transform="translate(-62.08 -32.08)"/><path class="cls-2" d="M132.22,123.35q0-14.49,0-29c0-3.3.94-4.27,4.24-4.27,9.41,0,18.83,0,28.24,0A6.31,6.31,0,0,1,169,91.73c3,2.58,6.11,5.08,9.23,7.53a4.44,4.44,0,0,1,1.84,3.77q0,24.57,0,49.14c0,3.15-1,4.15-4.19,4.15q-19.8,0-39.61,0c-3.19,0-4.05-.84-4.05-4Q132.21,137.83,132.22,123.35Zm6-.13h0q0,12.56,0,25.12c0,1.24,0,2.27,1.78,2.26q16.22-.07,32.45,0c1.27,0,1.71-.48,1.71-1.73q0-22,0-44a2.74,2.74,0,0,0-1.15-2.34c-2.3-1.82-4.59-3.65-6.83-5.54a3.86,3.86,0,0,0-2.69-.9c-7.7,0-15.4.06-23.1,0-1.73,0-2.19.58-2.18,2.23C138.22,106.6,138.18,114.91,138.18,123.22Z" transform="translate(-62.08 -32.08)"/><path class="cls-2" d="M191.44,110.89v23.84a14.43,14.43,0,0,1,0,1.47c-.19,2-1.36,3.25-3.06,3.19s-2.84-1.3-2.86-3.37c0-6.48,0-13,0-19.44,0-9.35,0-18.71,0-28.06a3.6,3.6,0,0,0-1.58-3.25,71.59,71.59,0,0,1-5.85-4.7,5.37,5.37,0,0,0-4-1.41c-7.4,0-14.8.08-22.19,0-1.87,0-2.56.71-2.53,2.43a9.08,9.08,0,0,1,0,1.28,2.81,2.81,0,0,1-2.86,2.75,2.74,2.74,0,0,1-2.81-2.8c-.09-2.19-.09-4.4,0-6.6.08-2,1.29-3,3.62-3,5.63,0,11.25,0,16.88,0,3.91,0,7.82,0,11.73,0a6.21,6.21,0,0,1,4.36,1.53c3,2.52,6,5,9.1,7.4a5,5,0,0,1,2.13,4.39C191.42,94.63,191.44,102.76,191.44,110.89Z" transform="translate(-62.08 -32.08)"/><path class="cls-1" d="M112.86,198c-2.08,0-4.16.09-6.23,0s-3.45-1.39-3.36-3.09,1.39-2.78,3.62-2.79q5.86,0,11.73,0c2.35,0,3.69,1.08,3.75,2.88s-1.43,3-3.64,3.06c-2,.06-3.91,0-5.87,0Z" transform="translate(-62.08 -32.08)"/><path class="cls-2" d="M155.93,147.43c-2,0-3.91,0-5.86,0a8.7,8.7,0,0,1-8.67-9,21.12,21.12,0,0,1,.15-3.65,8.07,8.07,0,0,1,7.12-6.88,62.54,62.54,0,0,1,14.79,0,7.81,7.81,0,0,1,7,6.5c1.7,7.27-2,13.53-10.19,13.07-1.46-.08-2.93,0-4.39,0Zm.06-6h0c2.08,0,4.16,0,6.24,0a2.45,2.45,0,0,0,2.65-2.63,24.48,24.48,0,0,0,0-2.57,2.45,2.45,0,0,0-2.51-2.62c-4.15-.08-8.31-.07-12.46,0A2.4,2.4,0,0,0,147.4,136a16.83,16.83,0,0,0,0,2.75c.11,1.88.88,2.65,2.75,2.7S154,141.45,156,141.45Z" transform="translate(-62.08 -32.08)"/></g></svg>