<svg id="Layer_1" data-name="Layer 1" xmlns="http://www.w3.org/2000/svg" viewBox="0 0 133.48 174.27"><defs><style>.cls-1{font-size:21.9px;font-family:Objectivity-Bold, Objectivity;font-weight:700;letter-spacing:-0.07em;}.cls-1,.cls-2{fill:#333;}</style></defs><text class="cls-1" transform="translate(10.83 166.95)">PASSPORT</text><path class="cls-2" d="M90.11,105.36V67.85c0-.21,0-.42,0-.63,0-1.23.49-1.7,1.74-1.71h14.67c11.11,0,22.22.07,33.33,0a7.7,7.7,0,0,1,7.32,7.3c-.07,21.87,0,43.74,0,65.6a7.38,7.38,0,0,1-6.94,6.92h-48c-1.73,0-2.09-.35-2.09-2.07V105.36Zm3,0v35.56c0,1.42,0,1.42,1.46,1.42h41.25a32.78,32.78,0,0,0,5.05-.14A3.71,3.71,0,0,0,144,139a14.91,14.91,0,0,0,.14-2.21V73.1c0-3-1.64-4.62-4.64-4.62H94.29c-1.21,0-1.21,0-1.21,1.23Z" transform="translate(-51.28 -35.16)"/><path class="cls-2" d="M101.5,108.18c-.22-9.19,8.34-17.62,18-17.09A17.68,17.68,0,0,1,135.8,107.7c.32,9.93-8.48,18.13-17.87,17.73C109.45,125.06,101.28,117.48,101.5,108.18Zm21.4-1.41H125c.36,0,.69-.06.63-.52-.13-1-.27-2-.41-3.07-.06-.43-.33-.57-.75-.57-1.24,0-2.48,0-3.72,0-.51,0-.67.23-.66.7,0,.92,0,1.83,0,2.75,0,.55.24.72.75.7C121.54,106.75,122.22,106.77,122.9,106.77Zm-8.57,0h0c.71,0,1.42,0,2.13,0,.49,0,.7-.19.69-.68,0-.92,0-1.84,0-2.76,0-.54-.21-.73-.74-.72-1.15,0-2.31,0-3.46,0a.84.84,0,0,0-1,.85c-.11.88-.2,1.76-.32,2.64-.07.47.11.67.57.67Zm8.56,3c-.68,0-1.36,0-2,0-.52,0-.76.17-.74.72,0,.91,0,1.83,0,2.74,0,.56.26.7.76.7,1.15,0,2.31,0,3.45,0a.82.82,0,0,0,1-.84c.1-.9.19-1.81.31-2.72.06-.44-.1-.6-.52-.6Zm-8.46,0h-2.22c-.32,0-.62,0-.57.47a24.43,24.43,0,0,0,.37,3.08.68.68,0,0,0,.74.6c1.25,0,2.49,0,3.74,0,.51,0,.67-.23.66-.7,0-.89,0-1.78,0-2.67,0-.57-.19-.81-.77-.78S115.08,109.73,114.43,109.73Zm-7.84-3h0c.36,0,.71,0,1.06,0,.68,0,.95-.24,1-.92a23,23,0,0,1,.31-2.46c.09-.53-.07-.78-.64-.77-3.1.08-2.63-.58-3.41,2.37-.46,1.77-.42,1.78,1.44,1.78ZM130,113.88c1.81,0,1.81,0,2.26-1.71.07-.26.13-.52.19-.78.34-1.66.34-1.66-1.33-1.66h-.8c-1.51,0-1.51,0-1.65,1.47,0,.33-.12.65-.16,1C128.26,113.87,128.26,113.87,130,113.88Zm.7-7.12h1.42c.44,0,.59-.23.52-.63a17.15,17.15,0,0,0-.77-3,.69.69,0,0,0-.74-.51h-2.22c-.48,0-.63.24-.56.67l.27,1.67C128.86,106.77,128.86,106.77,130.66,106.76Zm-24.11,3c-2.15,0-2.09-.26-1.64,1.82.5,2.35.54,2.35,2.91,2.33,1.2,0,1.2,0,1-1.16-.06-.41-.11-.82-.17-1.22C108.41,109.73,108.41,109.73,106.55,109.73ZM120.11,97c0,.63,0,1.25,0,1.87s.13.77.7.76c.94,0,1.89,0,2.83,0,.57,0,.59-.25.38-.66a14.78,14.78,0,0,0-1.18-2.18,7.08,7.08,0,0,0-1.84-1.9c-.22-.14-.46-.39-.71-.29s-.16.47-.17.72C120.1,95.91,120.11,96.47,120.11,97Zm0,22.4c0,.56,0,1.13,0,1.69,0,.25-.14.6.12.74s.55-.14.78-.31a9.34,9.34,0,0,0,3-4.17c.18-.39,0-.54-.38-.54-1,0-2,0-2.93,0-.52,0-.66.26-.65.73C120.13,118.19,120.11,118.81,120.11,119.43Zm-3,.09h0V119c0-2.12,0-2.12-2.15-2.13s-2.15,0-1.13,1.89a7.72,7.72,0,0,0,2.38,2.82c.23.16.48.46.78.3s.12-.49.12-.74C117.16,120.58,117.15,120.05,117.15,119.52Zm0-22.37c0-.65,0-1.19,0-1.72,0-.27.17-.66-.16-.79s-.54.18-.78.35a8.28,8.28,0,0,0-2.58,3.22c-.75,1.45-.74,1.48.89,1.44.82,0,1.85.35,2.41-.16S117,97.86,117.15,97.15Zm-9.79,2.5h2a.63.63,0,0,0,.65-.36c.43-1,.88-2,1.42-3.27A12.75,12.75,0,0,0,107.36,99.65Zm4.06,20.69c-.48-1.07-.92-2-1.34-3-.11-.27-.26-.46-.57-.46-.67,0-1.33,0-2.08,0A10.21,10.21,0,0,0,111.42,120.34Zm18.4-20.79a10.48,10.48,0,0,0-3.9-3.33,13.69,13.69,0,0,0,.72,1.65c.89,1.88.89,1.88,3,1.76A1.21,1.21,0,0,0,129.82,99.55Zm.06,17.3h-2a.57.57,0,0,0-.59.31c-.47,1-.92,2.07-1.47,3.31A12.81,12.81,0,0,0,129.88,116.85Z" transform="translate(-51.28 -35.16)"/><path class="cls-2" d="M118.54,132.49H109c-1.22,0-1.76-.47-1.75-1.49s.6-1.46,1.71-1.46h19.35c1.15,0,1.76.48,1.81,1.37s-.57,1.6-1.68,1.6h-9.85Z" transform="translate(-51.28 -35.16)"/><path class="cls-2" d="M118.63,135.22c1.84,0,3.68,0,5.51,0,1.13,0,1.68.51,1.66,1.5s-.6,1.45-1.65,1.45H113a1.48,1.48,0,1,1,0-3C114.9,135.21,116.76,135.22,118.63,135.22Z" transform="translate(-51.28 -35.16)"/><path class="cls-2" d="M130,79.77c0-.91,0-1.83,0-2.75,0-.66.25-1,.93-1a11.78,11.78,0,0,1,2.3.09,1.81,1.81,0,0,1,1.6,1.35,2.26,2.26,0,0,1-.5,2.4.83.83,0,0,0-.17,1.28c.23.38.42.78.64,1.17s.23.86-.27,1.12-.85,0-1.08-.42c-.35-.65-.68-1.31-1-2-.13-.23-.26-.5-.59-.45s-.31.39-.31.64,0,.77,0,1.16c0,.57,0,1.14-.78,1.12S130,83,130,82.44C130,81.55,130,80.66,130,79.77Zm1.53-1.46c-.09.6.09,1,.83,1s1-.19,1-.9-.51-1-1.17-1S131.46,77.77,131.49,78.31Z" transform="translate(-51.28 -35.16)"/><path class="cls-2" d="M124.1,79.76c0-.56,0-1.13.12-1.68a2.43,2.43,0,0,1,4.81,0,14.48,14.48,0,0,1,0,3.72,2,2,0,0,1-2,1.73c-1.5.08-2.37-.42-2.66-1.53A11,11,0,0,1,124.1,79.76Zm3.39.08h0c0-.56,0-1.12,0-1.68a.74.74,0,0,0-.84-.73.73.73,0,0,0-.84.71,19.84,19.84,0,0,0,0,3.36.74.74,0,0,0,.83.73.77.77,0,0,0,.87-.8C127.51,80.9,127.49,80.37,127.49,79.84Z" transform="translate(-51.28 -35.16)"/><path class="cls-2" d="M107.59,82.47c-.6-1.93-1.18-3.85-1.78-5.76a.9.9,0,0,0-.88-.7,1,1,0,0,0-1.13.73c-.57,1.9-1.16,3.79-1.75,5.68a.76.76,0,0,0,.58,1.09.7.7,0,0,0,1-.59c.15-1,.78-.92,1.5-1s.9.4,1,1,.38.74.89.58A.74.74,0,0,0,107.59,82.47Zm-3.6-2,.74-2.39.78,2.39Z" transform="translate(-51.28 -35.16)"/><path class="cls-2" d="M99.28,76a8.77,8.77,0,0,1,.89,0,2.39,2.39,0,0,1,.16,4.75,3.17,3.17,0,0,1-.61.07c-.65,0-.82.31-.78.88,0,.3,0,.59,0,.89,0,.52-.19.88-.74.89s-.78-.34-.78-.87c0-1.24,0-2.48,0-3.72,0-.35,0-.71,0-1.06C97.43,76,97.43,76,99.28,76ZM99,78.42c0,.59-.14,1.21.82,1.16.76,0,1.06-.35,1.06-1.08s-.4-1.09-1.15-1.14S99,77.9,99,78.42Z" transform="translate(-51.28 -35.16)"/><path class="cls-2" d="M118.75,79.73c0-.92,0-1.83,0-2.75,0-.69.3-1,1-1a9.07,9.07,0,0,1,2.38.13c1.16.34,1.61,1,1.57,2.43a2.06,2.06,0,0,1-1.72,2.15c-1.55.34-1.56.34-1.68,1.88,0,.55-.26.93-.85.91s-.66-.48-.66-1C118.76,81.62,118.75,80.68,118.75,79.73Zm1.51-1.3c.07.46-.24,1.16.73,1.14s1.15-.28,1.14-1.09-.39-1.09-1.17-1.12S120.28,77.9,120.26,78.43Z" transform="translate(-51.28 -35.16)"/><path class="cls-2" d="M115.43,83.59a2.6,2.6,0,0,1-1.77-.51c-.42-.32-.64-.74-.32-1.23s.76-.27,1.14,0a1.59,1.59,0,0,0,.54.3c.52.11,1.12.24,1.38-.4s-.21-.93-.67-1.17-.85-.43-1.27-.64a1.91,1.91,0,0,1-1.09-2,1.89,1.89,0,0,1,1.43-1.73,3.64,3.64,0,0,1,2.35,0,.76.76,0,0,1,.6,1c-.17.54-.56.48-1,.34-.61-.18-1.41-.54-1.71.26s.61.92,1.13,1.17c.78.38,1.53.78,1.78,1.72C118.39,82.43,117.4,83.59,115.43,83.59Z" transform="translate(-51.28 -35.16)"/><path class="cls-2" d="M110.27,83.59a2.53,2.53,0,0,1-2-.68.73.73,0,0,1-.13-1.1c.32-.39.67-.3,1,0a1.62,1.62,0,0,0,1.12.46c.44,0,.85-.09,1-.59a.82.82,0,0,0-.5-.94c-.34-.18-.7-.32-1.05-.48a2.29,2.29,0,0,1-1.58-2.06,1.89,1.89,0,0,1,1.14-1.86,3.32,3.32,0,0,1,3,.06.66.66,0,0,1,.29.92.6.6,0,0,1-.88.31,2.32,2.32,0,0,0-1.3-.22.75.75,0,0,0-.67.5c-.1.35.16.56.41.71.44.24.92.42,1.35.67a2.32,2.32,0,0,1,1.3,2.81C112.5,83.05,111.66,83.58,110.27,83.59Z" transform="translate(-51.28 -35.16)"/><path class="cls-2" d="M136.92,80.3V79c0-1.3,0-1.31-1.29-1.62a.6.6,0,0,1-.5-.63.58.58,0,0,1,.57-.66q2,0,4,0a.59.59,0,0,1,.59.65.58.58,0,0,1-.68.64c-1.14-.17-1.22.48-1.19,1.36.06,1.29,0,2.6,0,3.89,0,.5-.1.92-.69.93s-.82-.38-.82-.93V80.3Z" transform="translate(-51.28 -35.16)"/><path class="cls-2" d="M118,168.64a66.74,66.74,0,1,1,66.74-66.74A66.82,66.82,0,0,1,118,168.64Zm0-130.79a64.05,64.05,0,1,0,64,64.05A64.13,64.13,0,0,0,118,37.85Z" transform="translate(-51.28 -35.16)"/></svg>