<svg id="Layer_1" data-name="Layer 1" xmlns="http://www.w3.org/2000/svg" viewBox="0 0 133.48 173.06"><defs><style>.cls-1{font-size:21.9px;font-family:Objectivity-Bold, Objectivity;font-weight:700;letter-spacing:-0.07em;}.cls-1,.cls-2{fill:#333;}</style></defs><text class="cls-1" transform="translate(43.87 165.74)">TRA</text><path class="cls-2" d="M124.2,173a66.75,66.75,0,1,1,66.74-66.74A66.82,66.82,0,0,1,124.2,173Zm0-130.79a64,64,0,1,0,64.05,64.05A64.12,64.12,0,0,0,124.2,42.25Z" transform="translate(-57.46 -39.55)"/><path class="cls-2" d="M163.13,134.84c-.68-1-1.37-1.93-2.11-2.83s-1.66-1.76-2.39-2.71a1.91,1.91,0,0,1-.25-1.34,11,11,0,0,1,.56-1.71c.42-1.35.83-2.71,1.26-4.06.18-.57.45-1.11.64-1.69s.36-1.33.56-2c.44-1.37.9-2.71,1.34-4.07a3.83,3.83,0,0,0,.1-.7,10.47,10.47,0,0,0-1.36.47c-.67.33-1.29.75-1.95,1.08-1.36.68-2.76,1.31-4.12,2s-2.87,1.53-4.3,2.28a26.06,26.06,0,0,0-4.75,2.67,1.46,1.46,0,0,1-.61.19.92.92,0,0,0-.83,1.18c.15,1.23.26,2.46.34,3.69.06.86-.49,1.33-1.36,1.29a21,21,0,0,0-2.75,0,1.94,1.94,0,0,1-2.19-1.07,5.91,5.91,0,0,1-.8-1.94,21.19,21.19,0,0,1,0-3.65,1.31,1.31,0,0,1,.53-.92,26.88,26.88,0,0,1,2.87-1.6c1.38-.64,2.81-1.16,4.22-1.77,1.11-.48,2.2-1,3.3-1.54,1.27-.56,2.56-1.08,3.84-1.64,1-.45,2.06-.87,3.06-1.37.44-.22,1.07-.51,1.17-.89a14.3,14.3,0,0,0,.34-2.93c.15-2.39.25-4.79.36-7.2,0-.73,0-1.46.08-2.19a26.44,26.44,0,0,1,.43-4.3,18.27,18.27,0,0,0,.11-4.06c0-1.75.05-3.51.16-5.25.23-3.53.51-7.06.79-10.59a1.56,1.56,0,0,0-.77-1.45c-.5-.36-1-.68-1.53-1-.8-.58-1.57-1.19-2.37-1.76s-1.67-1.1-2.48-1.69c-1.44-1.06-2.85-2.16-4.27-3.24l-.27-.23c-.72-.51-1.47-1-2.16-1.54-1-.77-2.1-1.38-3-2.24a27.73,27.73,0,0,0-3-2.1c-.49-.33-1-.64-1.46-1-.76-.56-1.49-1.2-2.29-1.73-.64-.42-1-.23-1,.53a12.53,12.53,0,0,0,.08,1.73.69.69,0,0,0,.24.42c1.46,1.2,2.93,2.38,4.38,3.59,1,.82,1.89,1.69,2.86,2.5,2.06,1.69,4.16,3.32,6.2,5,1.45,1.22,2.86,2.51,4.26,3.8a1.57,1.57,0,0,1,.49,1c-.07,2-.22,4.07-.35,6.1-.05.75-.07,1.51-.15,2.25-.21,2.07-.48,4.13-.66,6.2-.11,1.3-.09,2.62-.13,3.93a3.93,3.93,0,0,1-.15.64,10.82,10.82,0,0,0-.27,1.4c-.16,2.42-.29,4.84-.44,7.26,0,.93-.12,1.84-.24,2.76,0,.35-.16.85-.41,1-1.2.63-2.46,1.18-3.72,1.71-.67.28-1.39.44-2.06.72-1.22.52-2.39,1.13-3.61,1.64s-2.66,1-4,1.58-2.87,1.25-4.31,1.9c-1,.43-2,.86-2.92,1.33a6.15,6.15,0,0,0-3.18,3.38,9.22,9.22,0,0,0,.12,7c.38.92,0,1.55-1,1.54h-2c-.8,0-1.26-.52-1.07-1.25s.36-1.5.59-2.22a6.11,6.11,0,0,0-.85-5,8,8,0,0,0-3.05-3,11.72,11.72,0,0,0-2.27-1,37.67,37.67,0,0,1-3.93-1.71l-6.93-2.91L105,111c-.81-.31-1.63-.57-2.42-.93-.94-.42-1.82-1-2.75-1.36-1.35-.57-1.44-.68-1.46-2.11s0-3.11-.14-4.66c-.16-2.14-.48-4.27-.65-6.42-.13-1.78-.27-3.55-.49-5.32-.33-2.57-.35-5.18-.54-7.76-.13-1.72-.3-3.44-.51-5.14a1.83,1.83,0,0,1,.63-1.63c1-.94,2.06-1.79,3.11-2.66,1.8-1.48,3.62-2.94,5.41-4.42.93-.78,1.81-1.61,2.74-2.37.74-.61,1.57-1.11,2.3-1.72A48,48,0,0,1,114.33,61a1.64,1.64,0,0,0,.7-2c-.17-.79-.68-1.2-1.16-.85-.88.64-1.8,1.21-2.68,1.84-.32.23-.57.59-.9.83-.83.56-1.71,1.06-2.52,1.64-2,1.45-4,3-6,4.39-1.16.84-2.41,1.55-3.56,2.39-1.74,1.24-3.42,2.57-5.12,3.84-.88.64-1.78,1.22-2.65,1.86-.2.15-.45.4-.45.61a24.16,24.16,0,0,0,.06,2.69c.09,1.13.32,2.25.37,3.38.1,2.8.14,5.61.21,8.43a3.7,3.7,0,0,0,.07.57c.18,1.64.46,3.27.53,4.91.14,2.69.13,5.39.2,8.09a5.31,5.31,0,0,0,.24,1,3.16,3.16,0,0,1,.18.84c.08,2.33.17,4.66.18,7,0,.56.23.74.69.92,1.27.53,2.53,1.1,3.8,1.66.72.33,1.42.71,2.15,1,.89.37,1.83.66,2.71,1,1.31.58,2.59,1.22,3.89,1.81.64.3,1.29.56,2,.84.83.36,1.68.69,2.49,1.09a3,3,0,0,1,1.7,2,7.85,7.85,0,0,1-.6,4.61c-.24.58-.46,1.23-1.36,1.18-1.26-.08-2.53,0-3.78-.05a1,1,0,0,1-1.1-1.06c0-1.09,0-2.19,0-3.28,0-.58.12-1.16.19-1.83L84,113.19c.46,1.17.87,2.17,1.26,3.19s.72,2.11,1.11,3.15c.6,1.57,1.22,3.12,1.83,4.68.42,1.07.87,2.13,1.24,3.22a1.55,1.55,0,0,1,0,1c-.1.24-.44.37-.63.58-1.57,1.76-3.12,3.52-4.69,5.29-.3.35-.26.61.19.76l3.45,1.19,5.78,2.06c.91.33,1,.62,1.14,1.64a6.29,6.29,0,0,0,1,3.18,5.7,5.7,0,0,0,4.86,2.22q19.64.06,39.25,0c2,0,4-.08,6,0a11,11,0,0,0,5.1-.8,4.83,4.83,0,0,0,3-4.14,2.18,2.18,0,0,1,1.67-2c.23-.08.44-.18.67-.27l3.86-1.59c1-.41,2-.8,3-1.24C163,135.25,163.18,134.91,163.13,134.84Zm-15.58-10.59c1.46.87,2.87,1.84,4.27,2.8.2.14.43.59.36.67a1.18,1.18,0,0,1-.76.43c-.79.06-1.6,0-2.4,0v0c-.75,0-1.5,0-2.25,0a.93.93,0,0,1-1-1c0-.58,0-1.16,0-1.74A1.3,1.3,0,0,1,147.55,124.25Zm-43.77,0c.06,1,0,2.09,0,3.13,0,.57-.49.68-1,.69H100v0c-.87,0-1.74,0-2.62,0-.25,0-.7-.14-.73-.27a1.35,1.35,0,0,1,.16-1,3.63,3.63,0,0,1,1.23-1c1.24-.6,2.52-1.12,3.78-1.68.29-.14.56-.31.83-.45C103.21,123.33,103.75,123.56,103.78,124.2Zm-9.36,5.93a6.76,6.76,0,0,1-.06,2.24,6.26,6.26,0,0,0,0,2.28,7.79,7.79,0,0,1-.11,2.58c0,.19-.31.34-.43.46-.87-.28-1.61-.49-2.33-.73-1.24-.42-2.46-.86-3.68-1.29-.77-.27-1.55-.51-2.32-.81-.54-.21-.6-.62-.17-1.09.61-.66,1.25-1.3,1.86-1.94l1.53-1.64a10.45,10.45,0,0,1,.81-.82c.81-.69.87-1.28.34-2.52s-.89-2.28-1.33-3.43l-1.2-3.08c-.56-1.46-1.15-2.91-1.67-4.38-.1-.28.05-.64.07-1a3.36,3.36,0,0,1,.85.1c.86.37,1.7.8,2.56,1.19,1.29.57,2.6,1.12,3.89,1.7,1,.42,1.88.86,2.82,1.28.75.34,1.5.64,2.25,1,1.2.56,2.41,1.11,3.59,1.7.2.1.31.38.45.58-.18.09-.35.19-.53.27-.37.16-.78.26-1.13.45a29.81,29.81,0,0,0-4.3,2.47A4.16,4.16,0,0,0,94.42,130.13Zm58.66,4.37c-.05.89-.16,2.31-.21,3.74,0,.92.08,1.84,0,2.75a3,3,0,0,1-.62,1.63,4.37,4.37,0,0,1-2.52,1.61,59.84,59.84,0,0,1-9.65.48q-19.86.06-39.75,0a7,7,0,0,1-3.27-1,3.28,3.28,0,0,1-1.48-2.28c-.34-1.84.06-3.65,0-5.48s0-3.74-.06-5.61a1,1,0,0,1,1.12-1.12c2.06,0,4.13.13,6.2.13,1.81,0,3.63-.13,5.44-.14,4.44,0,8.88,0,13.32.05,1.6,0,3.2.05,4.8.05,4.05,0,8.1,0,12.16,0,1.53,0,3.08,0,4.62,0,2.13,0,4.25,0,6.38,0,1,0,1.94.08,2.9.15.57,0,.65.52.66,1C153.1,131.57,153.08,132.76,153.08,134.5Zm8.25.71c-.73.35-1.53.59-2.27.91-1.35.58-2.69,1.16-4,1.77-.49.23-.82.1-.83-.46,0-1.42,0-2.85,0-4.29h-.05c0-1,0-1.94,0-2.91a5.67,5.67,0,0,0-3-5.28c-1-.63-2-1.07-3.07-1.63-.21-.12-.51-.38-.49-.55a1.15,1.15,0,0,1,.45-.82c1.4-.78,2.84-1.52,4.29-2.24,1.2-.59,2.44-1.11,3.63-1.72,1-.53,2-1.17,3-1.72a14,14,0,0,1,1.79-.74c.61-.2.79.18.66.66-.22.78-.52,1.55-.78,2.32-.38,1.14-.75,2.29-1.13,3.44s-.82,2.45-1.22,3.69c-.31,1-.64,1.92-.87,2.9a1.16,1.16,0,0,0,.32.82c1.26,1.54,2.56,3,3.81,4.57C162.05,134.51,162,134.86,161.33,135.21Z" transform="translate(-57.46 -39.55)"/><path class="cls-2" d="M139.8,72.08c.12.55.23,1.1.36,1.64,0,.14.1.28.13.42.35,1.69.67,3.39,1.05,5.08.45,2,.94,4,1.45,6,.4,1.54.91,3,1.28,4.59s.66,3.36,1.06,5c.35,1.47.75,2.93,1.22,4.36.14.41.61.7,1,1.13a4.54,4.54,0,0,0-1.31.92,11.2,11.2,0,0,0-1.34,2.45c-.23.56-.51.93-1.11.93-1.44,0-2.87-.07-4.3,0-1.11,0-2.21.29-3.32.35a1.5,1.5,0,0,1-1.05-.49,3.63,3.63,0,0,1-1.07-2,2.15,2.15,0,0,0-1.31-1.62c-.75-.39-.75-.47-.12-1A1.79,1.79,0,0,0,133,99c.3-.92.57-1.85.78-2.8.39-1.74.7-3.5,1.1-5.23s.84-3.16,1.21-4.75c.27-1.15.43-2.32.67-3.48.15-.72.36-1.44.55-2.16.41-1.51.85-3,1.25-4.53.21-.78.36-1.57.53-2.36.24-1.14-.12-1.54-1.26-1.54-3.84,0-7.69,0-11.53,0a1.45,1.45,0,0,0-1.68,1.68c.07,5.15,0,10.31,0,15.46,0,.69.16,1.18.87,1.35a6.49,6.49,0,0,1,2.7,1.44s1,1.48.28,2.22-1.41,1.38-2,2.14a6.45,6.45,0,0,0-.85,1.6c0,.13.09.41.22.54a25.07,25.07,0,0,1,1.92,1.94,4.08,4.08,0,0,1,.65,1.72c.11.64,0,1.31.09,2,.11,1.31.25,2.62.39,3.93a3.1,3.1,0,0,1-.5,2.28c-.56.77-.19,1.41.29,2,.07.09.19.16.24.27a1.28,1.28,0,0,1,.19.63c0,.1-.36.2-.56.2-1.5,0-3,0-4.52,0-1.7,0-3.4,0-5.1,0a2.85,2.85,0,0,1-.77-.24,4.41,4.41,0,0,1,.36-.64,1.47,1.47,0,0,0,.32-1.73,1.88,1.88,0,0,1-.19-.84c0-1.87,0-3.74,0-5.61a26.75,26.75,0,0,1,0-3.35c.1-.81.31-1.56,1-1.85a2.07,2.07,0,0,0,1.17-1.44,2.8,2.8,0,0,0-.48-2.69c-.64-.53-1.27-1.07-1.95-1.55s-.12-1-.18-1.46c0-.08.45-.2.67-.34a4.29,4.29,0,0,0,1.19-.83c.43-.53.79-.93,1.56-.63.51.2,1.14-.37,1.29-1.09a6,6,0,0,0,.08-.94q0-7.52,0-15c0-1-.23-1.21-1.19-1.21h-12c-.45,0-1.25.05-1.27.19a6.7,6.7,0,0,0,0,2,8.54,8.54,0,0,0,.33,1.3c.2.87.39,1.74.61,2.61s.54,1.9.79,2.85c.62,2.34,1.25,4.67,1.83,7,.38,1.54.67,3.11,1.05,4.65s.87,3.3,1.3,4.94c0,.07.08.14.07.21a2.08,2.08,0,0,0,1.16,2.15c-.17.18-.24.34-.36.39-1.39.51-1.66,1.81-2.19,3a1.17,1.17,0,0,1-1.18.77c-1.21-.06-2.43,0-3.64,0-.08,0-.17,0-.22,0-1.12.69-2.36.28-3.54.39-1,.08-1.41-.29-1.74-1.22a4.38,4.38,0,0,0-1.8-2.69,4.9,4.9,0,0,1-.53-.45c1.61-1.36,1.43-3.37,1.92-5.14.27-.94.59-1.87.83-2.82s.36-1.75.53-2.63.33-1.9.56-2.84c.31-1.3.7-2.59,1-3.9.29-1.11.55-2.24.83-3.36s.6-2.17.87-3.26a30.15,30.15,0,0,0,.63-3,1.85,1.85,0,0,0-.42-1.22.7.7,0,0,1,0-.13,2.33,2.33,0,0,0,2.12-.82c.14-.15.5-.15.75-.15h11.09c.56,0,1.18.17,1.58-.46a2,2,0,0,0-.12-2.17c-.42-.74-.4-1,.22-1.65s1-.23,1.47,0c.64.34.71.87.47,1.56a4.54,4.54,0,0,0-.27,1.54A1.19,1.19,0,0,0,126,71c3.65,0,7.3,0,11,0a3,3,0,0,1,1.07.3C138.63,71.53,139.24,71.82,139.8,72.08Zm-13.89,28.66c-.32.36-.47.55-.65.72a1.21,1.21,0,0,1-.48.35,2.81,2.81,0,0,1-1.15.06,4.83,4.83,0,0,1-1.18-.59c-.2-.12-.4-.44-.56-.41s-.4.32-.48.54a1.57,1.57,0,0,1-1.33,1.09c-.76.07-.87.48-.85,1.07l.12,5.61c0,1.1.11,1.22,1.22,1.37a4.38,4.38,0,0,0,.51,0c1.75,0,3.49,0,5.24,0,1.05,0,1.78-.47,1.8-1.51,0-1.89,0-3.79-.14-5.67,0-.41-.42-1.08-.71-1.11C126.4,102.22,126,101.81,125.91,100.74Zm13.86-9.36h0c0,1.85,0,3.69,0,5.54,0,.8.06,1.6.1,2.4a.58.58,0,0,0,.64.63c1.44,0,2.87.06,4.3,0a.85.85,0,0,0,.76-1.24,6.78,6.78,0,0,1-.27-1.12c-.09-.45-.12-.91-.24-1.36-.36-1.41-.79-2.81-1.13-4.23-.4-1.67-.69-3.36-1.1-5-.37-1.48-1-2.91-1.23-4.41a6.84,6.84,0,0,0-.9-2.39c-.07-.12-.06-.28-.12-.41s-.24-.41-.37-.61c-.13.22-.36.44-.38.68-.06.79,0,1.59,0,2.39Zm-5.12,8.46L138,100a1,1,0,0,0,1-.82,4.22,4.22,0,0,0,.08-1V85.45c0-1.63,0-3.26,0-4.89a2.93,2.93,0,0,0-.28-.76c-.22.2-.53.36-.63.61a18,18,0,0,0-.63,2c-.5,2-1.07,4-1.46,6.08-.32,1.72-1,3.36-1.08,5.13a1.57,1.57,0,0,1-.11.35c-.41,1.5-.84,3-1.2,4.5a2.78,2.78,0,0,0,.72,2.13c.59,1,1.18,1.93,1.68,2.94a1.5,1.5,0,0,0,2.28.29,3.46,3.46,0,0,1-1.9-2.16c-.11-.39-.58-.67-.91-1Zm-26.24-10.3h0c0,2.84,0,5.69,0,8.53,0,1.38.29,1.72,1.66,1.75,1,0,2.07.06,3.11.05.2,0,.54-.14.58-.28a3.57,3.57,0,0,0,.19-1.4c-.1-.63-.4-1.22-.56-1.84-.23-.91-.38-1.84-.6-2.76-.27-1.13-.61-2.25-.87-3.39-.37-1.62-.69-3.24-1-4.86,0-.12-.07-.23-.11-.35-.43-1.47-.83-2.94-1.3-4.4a5.4,5.4,0,0,0-.69-1.07,3.93,3.93,0,0,0-.37,1.13C108.4,83.62,108.41,86.58,108.41,89.54Zm-.61-8.3h-.08a7.93,7.93,0,0,0,0-1.09c0-.14-.23-.25-.35-.37a1.52,1.52,0,0,0-.34.38c-.14.3-.23.62-.35.93a14.43,14.43,0,0,0-.6,1.54c-.25.9-.4,1.82-.63,2.73-.41,1.62-.84,3.24-1.26,4.87-.16.6-.33,1.21-.46,1.82-.25,1.12-.47,2.24-.71,3.36s-.51,2.31-.73,3.47c-.07.38,0,.72.55.69a13.54,13.54,0,0,1,1.8.06c.63,0,1.26.14,1.88.15.88,0,1.18-.28,1.24-1.13,0-.56.06-1.12.06-1.68Zm-.74,22.66a4.58,4.58,0,0,0-.75-.67,2.51,2.51,0,0,1-1.07-1.28,9.39,9.39,0,0,0-1.58-2c-.1-.12-.36-.11-.55-.1a.44.44,0,0,0-.34.18c0,.09.07.24.14.36a21,21,0,0,1,1.26,2.33A2.13,2.13,0,0,0,107.06,103.9Zm16.19-6.5h0a5.64,5.64,0,0,0,1.3,0,1,1,0,0,0,.59-.6.71.71,0,0,0-.35-.61,4.14,4.14,0,0,0-2.84.14c-.22.1-.36.4-.53.61a3.3,3.3,0,0,0,.81.46A4.33,4.33,0,0,0,123.25,97.4Zm-.9-4.44h0c0,.53,0,1.06,0,1.59,0,.16.16.31.24.46.11-.11.31-.2.32-.32.14-1.14.26-2.29.33-3.44,0-.14-.33-.31-.51-.47-.13.17-.36.33-.38.51C122.31,91.84,122.35,92.4,122.35,93Zm-2.16.38a13.44,13.44,0,0,0-1.09-1s-.33.27-.51.41c.34.36.67.73,1,1.07A4.46,4.46,0,0,0,120.19,93.34Zm.86-.41c.62-.46.34-1,.33-1.44,0-.11-.32-.32-.36-.29s-.44.33-.42.47A9.73,9.73,0,0,0,121.05,92.93Z" transform="translate(-57.46 -39.55)"/><path class="cls-2" d="M100,128c-.88,0-1.75,0-2.63,0-.26,0-.7-.14-.73-.27a1.35,1.35,0,0,1,.17-1,3.72,3.72,0,0,1,1.22-1c1.24-.6,2.52-1.12,3.78-1.69.29-.12.55-.3.83-.44.58-.31,1.12-.09,1.15.55.06,1,0,2.09,0,3.13,0,.57-.49.68-1,.68H100Z" transform="translate(-57.46 -39.55)"/><path class="cls-2" d="M149,128.15h-2.25a.93.93,0,0,1-1-1c0-.58,0-1.16,0-1.74a1.3,1.3,0,0,1,1.87-1.12c1.46.88,2.87,1.84,4.28,2.8.19.14.42.59.35.67a1.14,1.14,0,0,1-.76.43c-.8.06-1.6,0-2.4,0Z" transform="translate(-57.46 -39.55)"/><path class="cls-2" d="M125.91,100.74c.1,1.07.49,1.48,1.36,1.57.29,0,.69.7.71,1.11.12,1.88.17,3.78.14,5.67,0,1-.75,1.53-1.8,1.51-1.75,0-3.49,0-5.24,0a4.38,4.38,0,0,1-.51,0c-1.11-.15-1.2-.27-1.22-1.37l-.12-5.61c0-.59.09-1,.85-1.07a1.57,1.57,0,0,0,1.33-1.09c.08-.22.29-.5.48-.54s.36.29.56.41a4.83,4.83,0,0,0,1.18.59,2.81,2.81,0,0,0,1.15-.06,1.21,1.21,0,0,0,.48-.35C125.44,101.29,125.59,101.1,125.91,100.74Z" transform="translate(-57.46 -39.55)"/><path class="cls-2" d="M123.25,97.4a4.33,4.33,0,0,1-1,0,3.3,3.3,0,0,1-.81-.46c.17-.21.31-.51.53-.61a4.14,4.14,0,0,1,2.84-.14.71.71,0,0,1,.35.61,1,1,0,0,1-.59.6,5.64,5.64,0,0,1-1.3,0Z" transform="translate(-57.46 -39.55)"/><path class="cls-2" d="M122.35,93c0-.56,0-1.12,0-1.67,0-.18.25-.34.38-.51.18.16.52.33.51.47-.07,1.15-.19,2.3-.33,3.44,0,.12-.21.21-.32.32-.08-.15-.23-.3-.24-.46,0-.53,0-1.06,0-1.59Z" transform="translate(-57.46 -39.55)"/><path class="cls-2" d="M120.19,93.34a4.46,4.46,0,0,1-.58.47c-.35-.34-.68-.71-1-1.07.18-.14.47-.44.51-.41A13.44,13.44,0,0,1,120.19,93.34Z" transform="translate(-57.46 -39.55)"/><path class="cls-2" d="M121.05,92.93a9.73,9.73,0,0,1-.45-1.26c0-.14.25-.35.42-.47s.36.18.36.29C121.39,91.94,121.67,92.47,121.05,92.93Z" transform="translate(-57.46 -39.55)"/><path class="cls-2" d="M128.31,140.72a6.34,6.34,0,0,0-.57-.82c-.43-.55-.92-1.06-1.3-1.62s-.34-.9.4-1.13c.21-.08.48-.14.58-.29.44-.68,1-1.42.57-2.27a2.6,2.6,0,0,0-2.34-1.77c-2,0-3.89,0-5.83,0-.58,0-.79.23-.77.79,0,1.09,0,2.18,0,3.28h0v1.52c0,.73,0,1.46,0,2.19s.44.78,1,.77,1,0,1-.73a8.8,8.8,0,0,1,0-1.36c.06-.44.17-1.12.42-1.19a2.13,2.13,0,0,1,1.55.14,7.12,7.12,0,0,1,1.65,1.5c.86,1,1.69,2,3.19,1.67.17,0,.42-.05.5-.16S128.39,140.88,128.31,140.72Zm-4-4.09h-1.89a1.21,1.21,0,0,1-1.32-1.28,1.15,1.15,0,0,1,1.28-1.23c.7,0,1.4,0,2.1.08s1.42.73,1.38,1.27A1.64,1.64,0,0,1,124.26,136.63Z" transform="translate(-57.46 -39.55)"/><path class="cls-2" d="M139.61,140.56a7.94,7.94,0,0,0-.65-1.39c-.78-1.53-1.59-3-2.31-4.58-.81-1.72-.78-1.75-2.69-1.77a.93.93,0,0,0-.69.35c-.36.63-.63,1.32-1,2-.58,1.14-1.18,2.27-1.77,3.39-.46.86-.92,1.73-1.41,2.63a2,2,0,0,0,2.86-.92,1.21,1.21,0,0,1,1.22-.83c.86,0,1.7,0,2.56,0a1.33,1.33,0,0,1,1.3.69c.42.62.71,1.5,1.82,1.29C139.45,141.28,139.75,141.08,139.61,140.56Zm-3.89-2.71c0,.14-.48.19-.75.26a2.17,2.17,0,0,1-.36,0c-1.47,0-1.57-.14-1-1.44a3.83,3.83,0,0,1,.63-1c.39-.41.82-.25,1,.3.08.33.18.64.27,1S135.79,137.6,135.72,137.85Z" transform="translate(-57.46 -39.55)"/><path class="cls-2" d="M117.34,133.4c0,.39-.55.77-1.08.73-.17,0-.34-.06-.51-.07-1.44-.15-1.88.28-1.85,1.71s0,3.11,0,4.67c0,.54-.18,1-.91.94s-1-.37-1-1c0-1.53,0-3,0-4.58s-.35-1.93-1.79-1.74l-.79.09c-.54,0-.76-.28-.78-.75s.35-.59.74-.6c1.19,0,2.38,0,3.57,0v0h3.42C116.81,132.83,117.27,132.83,117.34,133.4Z" transform="translate(-57.46 -39.55)"/></svg>