<svg id="Layer_1" data-name="Layer 1" xmlns="http://www.w3.org/2000/svg" viewBox="0 0 476.38 156.49"><defs><style>.cls-1{fill:#eebf00;}.cls-2{fill:#009ab0;}</style></defs><path class="cls-1" d="M499.2,194.31h-411c-36,0-65.36-35.21-65.36-78.24S52.23,37.83,88.18,37.83h411Z" transform="translate(-22.82 -37.83)"/><path class="cls-2" d="M182.14,92.72l-8.84,50.21a1.74,1.74,0,0,1-1.64,1.43H160a1.09,1.09,0,0,1-1.14-1.14v-.29l6.49-37.16-8.13,3a2.84,2.84,0,0,1-.93.21c-.35,0-.5-.21-.5-.57v-.29L157.61,98a1.53,1.53,0,0,1,1.07-1.22l12.41-5.13a4.43,4.43,0,0,1,1.71-.29H181a1,1,0,0,1,1.14,1.07Z" transform="translate(-22.82 -37.83)"/><path class="cls-2" d="M233.71,92.72l-1.57,8.84a1.77,1.77,0,0,1-1.72,1.36H211L209,110.76h2.92c12.27,0,17.33,5.28,17.33,13.7,0,.78-.07,1.57-.14,2.35l-.07.71c-1.21,12.2-9.35,17.48-23.4,17.48a41,41,0,0,1-14-2.36c-.64-.21-1.21-.57-1.21-1.28v-.21l1.21-7.06a1.75,1.75,0,0,1,1.64-1.36h.15c3.28.36,9.91.79,11.77.79,7.06,0,8.63-1.5,9-6l.08-.71a8.82,8.82,0,0,0,.07-1.28c0-2.93-1.5-3.78-6.71-3.78H195.19a1,1,0,0,1-1.07-1c0-.07.07-.22.07-.29l7.13-27.74A1.84,1.84,0,0,1,203,91.36h29.53a1.11,1.11,0,0,1,1.22,1.14Z" transform="translate(-22.82 -37.83)"/><path class="cls-2" d="M273.78,114.4l-1.21,6.92C269.51,139,262,145,248.54,145c-10.35,0-16.27-5.85-16.27-16.91a39.17,39.17,0,0,1,.65-6.77l1.21-6.92c3.14-18,11.34-23.75,24-23.75,10.62,0,16.26,6.06,16.26,16.9A40,40,0,0,1,273.78,114.4ZM256,102.92c-3.06,0-5.49,1.42-7.27,11.48l-1.21,6.92a36.29,36.29,0,0,0-.72,6.42c0,4.13,1.5,5.06,4,5.06,3.49,0,5.49-1.28,7.27-11.48l1.22-6.92a37.11,37.11,0,0,0,.71-6.35C260,103.77,258.38,102.92,256,102.92Z" transform="translate(-22.82 -37.83)"/><path class="cls-2" d="M352.38,114.4l-1.22,6.92C348.09,139,340.54,145,327.13,145c-10.35,0-16.27-5.85-16.27-16.91a39.17,39.17,0,0,1,.65-6.77l1.21-6.92c3.14-18,11.34-23.75,24-23.75,10.62,0,16.26,6.06,16.26,16.9A40.91,40.91,0,0,1,352.38,114.4Zm-17.84-11.48c-3.06,0-5.49,1.42-7.27,11.48l-1.21,6.92a36.29,36.29,0,0,0-.72,6.42c0,4.13,1.5,5.06,4,5.06,3.49,0,5.49-1.28,7.27-11.48l1.21-6.92a36.31,36.31,0,0,0,.72-6.35C338.54,103.77,337,102.92,334.54,102.92Z" transform="translate(-22.82 -37.83)"/><path class="cls-2" d="M388.67,116.9c2.22,1.92,3.86,5.85,3.86,9.41,0,13.13-10.56,18.69-22.47,18.69H369c-11,0-17-6.06-17-13.27a18,18,0,0,1,8.13-14.83,11.93,11.93,0,0,1-3.78-8.49c0-13.55,10.28-17.76,22.26-17.76h.85c10.63,0,16.84,4.92,16.84,12.27A15.72,15.72,0,0,1,388.67,116.9ZM374.27,122H372.7c-5,0-6.49,4.07-6.49,8.35,0,2.49,1.28,4.13,4.71,4.13H372c5,0,6.71-4.13,6.71-8.48C378.69,123.89,377.55,122,374.27,122Zm3.21-20.75h-.72c-4.63,0-6.77,2.92-6.77,7.27,0,2.28,1.28,3.64,4.49,3.64h1.57c4.28,0,6.28-2.93,6.28-7C382.33,102.7,381,101.21,377.48,101.21Z" transform="translate(-22.82 -37.83)"/><path class="cls-2" d="M125.92,119.82l.37-10-8.41,5.42-3.37-5.89,8.88-4.58-8.88-4.58,3.37-5.8,8.41,5.33-.37-10h6.73l-.56,10,8.5-5.33,3.37,5.8-8.88,4.58,8.88,4.58-3.37,5.89-8.5-5.42.56,10Z" transform="translate(-22.82 -37.83)"/><path class="cls-2" d="M290.37,119.82l.38-10-8.42,5.42L279,109.35l8.88-4.58L279,100.19l3.36-5.8,8.42,5.33-.38-10h6.73l-.56,10,8.51-5.33,3.37,5.8-8.89,4.58,8.89,4.58-3.37,5.89-8.51-5.42.56,10Z" transform="translate(-22.82 -37.83)"/><path class="cls-2" d="M425.15,141.79l4-11.88h-6.31l-3.91,11.88h-8l4-11.88h-6.66l2.24-6.89h6.74l3.55-10.72h-6.74l2.18-6.89h6.88l4-12h8l-4,12h6.23l4-12h8l-4.06,12H452l-2.1,6.89h-6.88L439.43,123h7l-2.18,6.89h-7.1l-3.91,11.88ZM435,112.3h-6.23L425.23,123h6.16Z" transform="translate(-22.82 -37.83)"/></svg>