<svg id="Layer_1" data-name="Layer 1" xmlns="http://www.w3.org/2000/svg" viewBox="0 0 367.75 113.49"><defs><style>.cls-1{fill:#fabd00;}.cls-2{fill:#009ab0;}</style></defs><rect class="cls-1" width="367.75" height="113.49" rx="52.83"/><path class="cls-2" d="M131.59,54.64l-7.75,44a1.53,1.53,0,0,1-1.44,1.25H112.2a.94.94,0,0,1-1-1v-.25l5.69-32.59-7.13,2.62a2.35,2.35,0,0,1-.82.19c-.31,0-.43-.19-.43-.5v-.25l1.56-8.88A1.37,1.37,0,0,1,111,58.2l10.89-4.5a3.94,3.94,0,0,1,1.5-.25h7.19a.9.9,0,0,1,1,.94Z" transform="translate(-34.73 -20.23)"/><path class="cls-2" d="M176.83,54.64l-1.38,7.75a1.54,1.54,0,0,1-1.5,1.19h-17l-1.81,6.89h2.56c10.76,0,15.2,4.63,15.2,12,0,.69-.06,1.38-.12,2.06l-.06.63c-1.07,10.7-8.2,15.33-20.53,15.33a35.85,35.85,0,0,1-12.26-2.07c-.56-.18-1.06-.5-1.06-1.12v-.19l1.06-6.19a1.54,1.54,0,0,1,1.44-1.19h.13c2.87.31,8.69.68,10.32.68,6.19,0,7.57-1.31,7.95-5.25l.06-.63a7.8,7.8,0,0,0,.06-1.12c0-2.57-1.31-3.32-5.88-3.32H143a.87.87,0,0,1-.94-.88c0-.06.06-.18.06-.25l6.26-24.33a1.6,1.6,0,0,1,1.44-1.19h25.9a1,1,0,0,1,1.07,1Z" transform="translate(-34.73 -20.23)"/><path class="cls-2" d="M212,73.66l-1.06,6.07c-2.69,15.51-9.32,20.77-21.08,20.77-9.08,0-14.27-5.13-14.27-14.83a35,35,0,0,1,.56-5.94l1.07-6.07c2.75-15.83,10-20.84,21.08-20.84,9.33,0,14.27,5.32,14.27,14.83A34.9,34.9,0,0,1,212,73.66ZM196.34,63.58c-2.69,0-4.81,1.26-6.38,10.08l-1.06,6.07a31.58,31.58,0,0,0-.63,5.63c0,3.63,1.32,4.44,3.51,4.44,3.06,0,4.81-1.13,6.38-10.07l1.06-6.07a31.78,31.78,0,0,0,.63-5.57C199.85,64.33,198.47,63.58,196.34,63.58Z" transform="translate(-34.73 -20.23)"/><path class="cls-2" d="M280.93,73.66l-1.07,6.07c-2.69,15.51-9.32,20.77-21.08,20.77-9.08,0-14.27-5.13-14.27-14.83a35,35,0,0,1,.56-5.94l1.07-6.07c2.75-15.83,9.95-20.84,21.08-20.84,9.33,0,14.27,5.32,14.27,14.83A35.85,35.85,0,0,1,280.93,73.66ZM265.28,63.58c-2.69,0-4.81,1.26-6.38,10.08l-1.06,6.07a31.58,31.58,0,0,0-.63,5.63c0,3.63,1.32,4.44,3.51,4.44,3.06,0,4.81-1.13,6.38-10.07l1.06-6.07a31.78,31.78,0,0,0,.63-5.57C268.79,64.33,267.41,63.58,265.28,63.58Z" transform="translate(-34.73 -20.23)"/><path class="cls-2" d="M312.77,75.85a11.75,11.75,0,0,1,3.38,8.26c0,11.51-9.26,16.39-19.71,16.39h-.94c-9.64,0-14.89-5.32-14.89-11.64a15.79,15.79,0,0,1,7.13-13,10.47,10.47,0,0,1-3.32-7.45c0-11.89,9-15.58,19.53-15.58h.75c9.32,0,14.76,4.32,14.76,10.76A13.8,13.8,0,0,1,312.77,75.85Zm-12.64,4.44h-1.38c-4.38,0-5.69,3.57-5.69,7.32,0,2.19,1.13,3.63,4.13,3.63h.94c4.38,0,5.88-3.63,5.88-7.45C304,82,303,80.29,300.13,80.29Zm2.81-18.21h-.62c-4.07,0-5.94,2.57-5.94,6.38,0,2,1.12,3.19,3.94,3.19h1.37c3.76,0,5.51-2.56,5.51-6.13C307.2,63.4,306,62.08,302.94,62.08Z" transform="translate(-34.73 -20.23)"/><path class="cls-2" d="M82.27,78.41l.33-8.77L75.22,74.4l-3-5.17,7.79-4-7.79-4,3-5.08,7.38,4.67L82.27,52h5.91l-.5,8.77,7.47-4.67,2.95,5.08-7.79,4,7.79,4L95.15,74.4l-7.47-4.76.5,8.77Z" transform="translate(-34.73 -20.23)"/><path class="cls-2" d="M226.54,78.41l.32-8.77-7.38,4.76-2.95-5.17,7.79-4-7.79-4,2.95-5.08,7.38,4.67L226.54,52h5.9L232,60.78l7.46-4.67,3,5.08-7.79,4,7.79,4-3,5.17L232,69.64l.49,8.77Z" transform="translate(-34.73 -20.23)"/><path class="cls-2" d="M344.77,97.69l3.49-10.43h-5.53L339.3,97.69h-7l3.49-10.43H330l2-6h5.92L341,71.81H335l1.91-6h6l3.49-10.49h7L350,65.77h5.47l3.49-10.49H366l-3.56,10.49h5.91l-1.84,6h-6l-3.18,9.41h6.11l-1.91,6h-6.23l-3.44,10.43Zm8.64-25.88H348l-3.12,9.41h5.4Z" transform="translate(-34.73 -20.23)"/></svg>