<svg id="Layer_1" data-name="Layer 1" xmlns="http://www.w3.org/2000/svg" viewBox="0 0 129.91 169.51"><defs><style>.cls-1{font-size:30.74px;fill:#00a0b6;font-family:Objectivity-Bold, Objectivity;font-weight:700;}.cls-2{letter-spacing:-0.01em;}.cls-3{fill:#666;}</style></defs><text class="cls-1" transform="translate(47.05 125.33)">T<tspan class="cls-2" x="19.33" y="0">Z</tspan><tspan x="39.62" y="0">S</tspan></text><g id="i92xrL.tif"><path class="cls-3" d="M64.42,37.68H171.29c7.17,1.76,11.65,7.57,11.61,16.07-.19,42.85-.09,85.71-.09,128.57,0,7.11,0,14.23,0,21.34a3.15,3.15,0,0,1-1.56,3.12,3.08,3.08,0,0,1-3.58-.51c-1.66-1.24-3.35-2.44-5-3.74a1.73,1.73,0,0,0-2.51,0c-1.66,1.33-3.42,2.53-5.12,3.81a3.23,3.23,0,0,1-4.31,0c-1.6-1.22-3.27-2.36-4.82-3.65a2,2,0,0,0-3,0c-1.52,1.24-3.11,2.38-4.7,3.53-1.79,1.31-2.73,1.31-4.55,0-1.59-1.15-3.17-2.3-4.7-3.53a2,2,0,0,0-2.84,0c-1.48,1.2-3,2.29-4.58,3.41-2.06,1.51-3,1.5-5.13,0-1.52-1.14-3.09-2.23-4.54-3.46a1.77,1.77,0,0,0-2.64,0c-1.47,1.21-3,2.32-4.56,3.45-2.15,1.58-3,1.58-5.09,0-1.58-1.17-3.16-2.33-4.71-3.53a1.72,1.72,0,0,0-2.41,0c-1.64,1.28-3.31,2.5-5,3.72s-2.79,1.31-4.57,0c-1.55-1.11-3.11-2.2-4.55-3.44-1.13-1-2-1.09-3.19-.07-1.39,1.21-2.93,2.24-4.41,3.35-1.11.84-2.25,1.51-3.7.8s-1.77-2-1.76-3.51c0-6.95,0-13.89,0-20.84q0-17,0-33.95c0-1.13,0-1.79-1.43-1a3,3,0,0,1-3.43-.53c-1.7-1.29-3.43-2.52-5.09-3.85a1.64,1.64,0,0,0-2.38,0c-1.48,1.19-3,2.32-4.55,3.46-2.35,1.74-3.39,1.67-5.54-.36V49.11A15,15,0,0,1,64.42,37.68Zm16.9,85.75q0,35.64,0,71.27c0,1-.52,2.37.39,2.8s1.68-.85,2.47-1.41c2.15-1.52,3.22-1.55,5.3,0,1.48,1.1,3,2.16,4.41,3.36a1.87,1.87,0,0,0,2.79,0c1.57-1.27,3.2-2.45,4.83-3.63s2.77-1.21,4.44,0,3.26,2.38,4.84,3.64a1.84,1.84,0,0,0,2.67,0c1.53-1.22,3.14-2.35,4.73-3.5,2-1.42,3-1.42,5,0,1.49,1.09,3,2.13,4.41,3.35,1.12,1,2,.88,3.05,0,1.55-1.28,3.21-2.44,4.83-3.64a3.18,3.18,0,0,1,4.17,0c1.57,1.18,3.19,2.29,4.69,3.55a2.16,2.16,0,0,0,3.23.06c1.46-1.23,3-2.32,4.57-3.43,1.79-1.3,3-1.3,4.74,0,1.49,1.09,3,2.15,4.4,3.36,1.13,1,2,1.08,3.21.08,1.49-1.27,3.13-2.36,4.69-3.55a3.29,3.29,0,0,1,4.32-.08c.5.36,1,.76,1.5,1.08s.93,1.08,1.56.74.29-1.13.29-1.71q0-20.42,0-40.84,0-51.36,0-102.71c0-5.24-3.51-8.76-8.75-8.77q-17.29,0-34.6,0-26.46,0-52.92,0c-1.33,0-1.91.09-1,1.59a14.51,14.51,0,0,1,1.75,7.43Q81.28,88,81.32,123.43ZM75.41,94.87V81.59c0-9.86,0-19.72,0-29.58a8.34,8.34,0,0,0-7.7-8.48A8.23,8.23,0,0,0,59,50.47a24.62,24.62,0,0,0-.15,4q0,40.52,0,81c0,.93-.46,2.3.28,2.68.92.47,1.61-.91,2.47-1.36a2.61,2.61,0,0,0,.27-.19c1.85-1.32,2.9-1.37,4.73-.07,1.51,1.06,3,2.21,4.45,3.3,1.78,1.31,2.32,1.24,3.82-.29a2.94,2.94,0,0,0,.57-2.36Q75.41,116.06,75.41,94.87Z" transform="translate(-53 -37.68)"/><path class="cls-3" d="M129.11,77h31.75a9,9,0,0,1,2.84.21A2.84,2.84,0,0,1,165.91,80a2.78,2.78,0,0,1-2.2,2.83,7.8,7.8,0,0,1-2,.24q-32.58,0-65.17,0a8.43,8.43,0,0,1-1.67-.13,3.06,3.06,0,0,1-2.55-3.1A3,3,0,0,1,95.18,77c1.67-.11,3.36-.07,5-.07Z" transform="translate(-53 -37.68)"/><path class="cls-3" d="M119.22,105.64q-11.23,0-22.49,0c-2.92,0-4.39-1-4.39-3s1.47-3.07,4.36-3.07h45.15c.34,0,.67,0,1,0,2.08.19,3.31,1.34,3.28,3.09s-1.34,2.92-3.42,2.94c-5.76.06-11.52,0-17.29,0h-6.21Z" transform="translate(-53 -37.68)"/><path class="cls-3" d="M119.21,116.81c-7.72,0-15.44,0-23.16,0-1.23,0-2.37-.12-3.13-1.22a2.77,2.77,0,0,1-.26-3,3,3,0,0,1,2.88-1.67l12.42,0h32.9a21.76,21.76,0,0,1,2.68.08,2.85,2.85,0,0,1,2.61,3,2.78,2.78,0,0,1-2.77,2.81c-2.74.1-5.48.06-8.22.06-5.32,0-10.63,0-16,0Z" transform="translate(-53 -37.68)"/><path class="cls-3" d="M119.38,94.28H97.07c-.62,0-1.24,0-1.85,0a3,3,0,0,1-2.89-2.93,3,3,0,0,1,2.91-2.91c2.57-.09,5.14-.05,7.72-.05q19.71,0,39.43,0a3.71,3.71,0,0,1,2.82.81,2.95,2.95,0,0,1-2.16,5.1l-12.59,0Z" transform="translate(-53 -37.68)"/><path class="cls-3" d="M158.66,105.6c-1.34,0-2.68.07-4,0a3,3,0,0,1-3.07-2.94,2.93,2.93,0,0,1,3-3c2.79-.12,5.59-.12,8.38,0a2.92,2.92,0,0,1,3,3,3.1,3.1,0,0,1-3.07,3c-.72.07-1.45,0-2.18.06h-2Z" transform="translate(-53 -37.68)"/><path class="cls-3" d="M99.58,65.82c1.39,0,2.79,0,4.18,0a2.85,2.85,0,0,1,2.93,2.81,2.89,2.89,0,0,1-2.79,3c-2.9.11-5.8.1-8.7,0a2.9,2.9,0,0,1-2.86-2.93,3,3,0,0,1,3-2.9h4.19Z" transform="translate(-53 -37.68)"/><path class="cls-3" d="M158.73,94.24c-1.4,0-2.79.07-4.18,0a2.92,2.92,0,1,1-.05-5.83q4.27-.12,8.54,0a2.94,2.94,0,0,1,2.88,2.92,2.88,2.88,0,0,1-2.84,2.92C161.63,94.31,160.18,94.24,158.73,94.24Z" transform="translate(-53 -37.68)"/><path class="cls-3" d="M158.69,116.81c-1.34,0-2.68,0-4,0a3,3,0,0,1-3.13-2.84,3,3,0,0,1,3.13-3q4-.09,8,0a3,3,0,0,1,3.21,2.95c0,1.69-1.28,2.86-3.22,2.92C161.37,116.85,160,116.81,158.69,116.81Z" transform="translate(-53 -37.68)"/><path class="cls-3" d="M171.57,187.31a3,3,0,0,1-2.86,2.9,3,3,0,0,1-3.07-2.9,3,3,0,1,1,5.93,0Z" transform="translate(-53 -37.68)"/><path class="cls-3" d="M89.64,184.31a2.95,2.95,0,1,1,0,5.89,2.95,2.95,0,0,1,0-5.89Z" transform="translate(-53 -37.68)"/><path class="cls-3" d="M149,187.33a2.88,2.88,0,0,1-2.91,2.84,2.91,2.91,0,0,1-3-3,3,3,0,0,1,2.93-2.88A3,3,0,0,1,149,187.33Z" transform="translate(-53 -37.68)"/><path class="cls-3" d="M123.49,60.35a3,3,0,0,1-3-3,3.16,3.16,0,0,1,3-2.89,3,3,0,0,1,2.91,3.06A2.84,2.84,0,0,1,123.49,60.35Z" transform="translate(-53 -37.68)"/><path class="cls-3" d="M112.3,184.31a3.07,3.07,0,0,1,2.86,3.13,3,3,0,0,1-3,2.73,2.77,2.77,0,0,1-2.81-2.9A3,3,0,0,1,112.3,184.31Z" transform="translate(-53 -37.68)"/><path class="cls-3" d="M123.48,190.2a3,3,0,0,1-2.94-2.84,3,3,0,0,1,2.93-3.05,3,3,0,0,1,2.93,2.86A2.94,2.94,0,0,1,123.48,190.2Z" transform="translate(-53 -37.68)"/><path class="cls-3" d="M89.7,60.32a3,3,0,0,1-3-2.78,3,3,0,1,1,5.92-.06A2.88,2.88,0,0,1,89.7,60.32Z" transform="translate(-53 -37.68)"/><path class="cls-3" d="M171.55,57.49a2.95,2.95,0,0,1-5.89-.13,2.95,2.95,0,0,1,5.89.13Z" transform="translate(-53 -37.68)"/><path class="cls-3" d="M149,57.32a2.94,2.94,0,0,1-5.88.2,3,3,0,0,1,2.94-3A3,3,0,0,1,149,57.32Z" transform="translate(-53 -37.68)"/><path class="cls-3" d="M160.26,57.4a2.89,2.89,0,0,1-2.79,3,2.94,2.94,0,0,1-3.07-2.88,2.93,2.93,0,1,1,5.86-.08Z" transform="translate(-53 -37.68)"/><path class="cls-3" d="M103.82,187.34a2.84,2.84,0,0,1-2.88,2.86,3,3,0,0,1-3-3,3.12,3.12,0,0,1,2.93-2.91A3,3,0,0,1,103.82,187.34Z" transform="translate(-53 -37.68)"/><path class="cls-3" d="M131.87,187.17a3,3,0,0,1,2.92-2.88,3.12,3.12,0,0,1,2.93,3.09,2.93,2.93,0,1,1-5.85-.21Z" transform="translate(-53 -37.68)"/><path class="cls-3" d="M112.23,60.32a2.82,2.82,0,0,1-2.92-2.79,2.91,2.91,0,0,1,2.88-3,3.06,3.06,0,0,1,3,2.83A2.91,2.91,0,0,1,112.23,60.32Z" transform="translate(-53 -37.68)"/><path class="cls-3" d="M154.42,187.16a3,3,0,0,1,2.93-2.85,3,3,0,0,1,2.9,3.06,2.92,2.92,0,1,1-5.83-.21Z" transform="translate(-53 -37.68)"/><path class="cls-3" d="M100.89,60.34A2.89,2.89,0,0,1,98,57.49a3,3,0,0,1,3-3,2.87,2.87,0,0,1,2.85,3A2.84,2.84,0,0,1,100.89,60.34Z" transform="translate(-53 -37.68)"/><path class="cls-3" d="M137.71,57.45a2.92,2.92,0,0,1-2.87,2.89,2.79,2.79,0,0,1-3-2.91,2.91,2.91,0,0,1,2.82-2.93A3,3,0,0,1,137.71,57.45Z" transform="translate(-53 -37.68)"/></g></svg>