<svg id="Capa_1" enable-background="new 0 0 511.99 511.99" height="512" viewBox="0 0 511.99 511.99" width="512" xmlns="http://www.w3.org/2000/svg"><g><path d="m238.799 283.954v-60.249c0-13.366-10.874-24.239-24.24-24.239-13.361 0-24.231 10.874-24.231 24.239v58.227c-.402.589-.792 1.192-1.154 1.82-7.885 13.654-3.191 31.177 10.462 39.062 4.493 2.595 9.402 3.827 14.252 3.827.02 0 .04-.002.06-.002l39.331 22.271c3.695 2.097 7.78 3.166 11.916 3.166 2.167 0 4.348-.293 6.493-.887 6.239-1.726 11.432-5.778 14.62-11.411 3.193-5.636 4-12.177 2.271-18.417-1.728-6.238-5.782-11.43-11.414-14.619l-37.565-21.28c-.251-.51-.521-1.011-.801-1.508zm-24.24-69.488c5.095 0 9.24 4.145 9.24 9.239v47.513c-6.062-2.231-12.559-2.283-18.472-.418v-47.094c0-5.096 4.142-9.24 9.232-9.24zm-12.396 76.787c2.516-4.356 7.094-6.793 11.795-6.793 2.306 0 4.641.586 6.776 1.819 6.491 3.749 8.723 12.08 4.974 18.572h.001c-3.75 6.491-12.082 8.723-18.572 4.974-6.491-3.749-8.723-12.08-4.974-18.572zm71.959 34.113c.658 2.377.351 4.87-.867 7.021-1.215 2.145-3.191 3.688-5.566 4.345-2.373.656-4.864.35-7.016-.871l-28.252-15.999c2.446-2.069 4.585-4.58 6.277-7.509h.001c1.541-2.667 2.594-5.483 3.202-8.346l27.873 15.79c2.145 1.214 3.69 3.192 4.348 5.569z"/><path d="m321.763 305.558h22.348c4.143 0 7.5-3.358 7.5-7.5s-3.357-7.5-7.5-7.5h-22.348c-4.143 0-7.5 3.358-7.5 7.5s3.357 7.5 7.5 7.5z"/><path d="m113.599 298.058c0-4.142-3.357-7.5-7.5-7.5h-22.349c-4.143 0-7.5 3.358-7.5 7.5s3.357 7.5 7.5 7.5h22.349c4.142 0 7.5-3.358 7.5-7.5z"/><path d="m213.931 197.726c4.143 0 7.5-3.358 7.5-7.5v-22.348c0-4.142-3.357-7.5-7.5-7.5s-7.5 3.358-7.5 7.5v22.348c0 4.142 3.357 7.5 7.5 7.5z"/><path d="m213.931 398.39c-4.143 0-7.5 3.358-7.5 7.5v22.349c0 4.142 3.357 7.5 7.5 7.5s7.5-3.358 7.5-7.5v-22.349c0-4.142-3.358-7.5-7.5-7.5z"/><path d="m116.795 345.479-19.355 11.174c-3.587 2.071-4.816 6.658-2.745 10.245 1.389 2.406 3.91 3.751 6.502 3.751 1.272 0 2.562-.324 3.743-1.006l19.354-11.174c3.587-2.071 4.816-6.658 2.745-10.245-2.069-3.588-6.658-4.817-10.244-2.745z"/><path d="m155.335 181.568c-2.071-3.588-6.66-4.815-10.245-2.745-3.587 2.071-4.816 6.658-2.745 10.245l11.175 19.354c1.39 2.406 3.91 3.751 6.502 3.751 1.272 0 2.562-.325 3.743-1.006 3.587-2.071 4.816-6.658 2.745-10.245z"/><path d="m274.342 387.693c-2.07-3.588-6.659-4.817-10.245-2.745-3.587 2.071-4.816 6.658-2.745 10.245l11.174 19.354c1.389 2.406 3.91 3.751 6.502 3.751 1.272 0 2.562-.324 3.743-1.006 3.587-2.071 4.816-6.658 2.745-10.245z"/><path d="m163.765 384.948c-3.587-2.073-8.175-.843-10.245 2.745l-11.175 19.354c-2.071 3.587-.842 8.174 2.745 10.245 1.181.682 2.471 1.006 3.743 1.006 2.592 0 5.113-1.345 6.502-3.751l11.175-19.354c2.071-3.587.842-8.174-2.745-10.245z"/><path d="m124.295 237.646-19.354-11.174c-3.59-2.072-8.175-.842-10.245 2.745-2.071 3.587-.842 8.174 2.745 10.245l19.354 11.174c1.182.682 2.471 1.006 3.743 1.006 2.592 0 5.113-1.346 6.502-3.751 2.071-3.587.842-8.174-2.745-10.245z"/><path d="m303.565 358.469 19.354 11.174c1.182.682 2.471 1.006 3.743 1.006 2.592 0 5.113-1.346 6.502-3.751 2.071-3.587.842-8.174-2.745-10.245l-19.354-11.174c-3.589-2.072-8.175-.842-10.245 2.745-2.071 3.587-.841 8.174 2.745 10.245z"/><path d="m382.17 0c-57.283 0-106.012 37.299-123.194 88.884-7.223-1.548-14.573-2.729-21.932-3.52-15.13-1.651-31.113-1.65-46.214-.001-48.223 5.173-93.742 26.986-128.173 61.419-34.43 34.433-56.241 79.954-61.413 128.165-.825 7.567-1.244 15.344-1.244 23.113s.419 15.545 1.243 23.1c2.82 26.274 10.381 51.471 22.473 74.891 1.332 2.58 3.954 4.061 6.67 4.061 1.159 0 2.335-.269 3.435-.837 3.681-1.9 5.124-6.424 3.224-10.105-11.237-21.766-18.265-45.186-20.888-69.623-.768-7.03-1.157-14.259-1.157-21.487s.389-14.457 1.157-21.5c4.81-44.83 25.091-87.153 57.106-119.171 32.018-32.02 74.338-52.302 119.18-57.113 14.052-1.534 28.907-1.535 42.986.001 6.592.708 13.169 1.754 19.636 3.113-1.771 8.533-2.706 17.369-2.706 26.42 0 2.423.073 4.829.204 7.22-6.824-1.631-13.764-2.838-20.733-3.584-11.581-1.281-24.228-1.279-35.773-.002-37.328 4.002-72.562 20.882-99.212 47.53-26.651 26.648-43.533 61.881-47.535 99.197-.64 5.888-.964 11.907-.964 17.89 0 5.977.324 11.992.963 17.87 4.003 37.327 20.885 72.562 47.535 99.212 26.651 26.65 61.886 43.532 99.202 47.534 5.883.64 11.898.964 17.88.964 5.989 0 12.008-.324 17.88-.963 37.327-4.003 72.56-20.885 99.208-47.536 26.647-26.65 43.527-61.884 47.527-99.188.646-5.854.975-11.874.975-17.894 0-6.027-.328-12.051-.973-17.879-.749-6.988-1.956-13.932-3.586-20.754 2.388.131 4.792.204 7.212.204 8.89 0 17.755-.93 26.425-2.729 1.362 6.477 2.409 13.064 3.119 19.673.768 7.021 1.156 14.25 1.156 21.486s-.389 14.465-1.157 21.5c-4.809 44.829-25.091 87.149-57.11 119.167-32.019 32.017-74.342 52.297-119.186 57.108-14.059 1.534-28.901 1.536-42.987-.002-56.143-6.02-107.291-35.929-140.332-82.06-2.413-3.369-7.102-4.141-10.465-1.73-3.367 2.412-4.142 7.097-1.73 10.464 35.528 49.603 90.539 81.765 150.914 88.238 7.568.826 15.345 1.245 23.114 1.245s15.546-.418 23.1-1.243c48.225-5.173 93.746-26.983 128.179-61.414s56.245-79.951 61.417-128.159c.825-7.559 1.244-15.336 1.244-23.114s-.419-15.556-1.243-23.101c-.791-7.371-1.973-14.728-3.522-21.956 6.578-2.179 12.979-4.87 19.112-8.078 3.67-1.92 5.089-6.452 3.169-10.122-1.92-3.671-6.451-5.087-10.122-3.17-16.486 8.624-34.35 12.996-53.094 12.996-63.307 0-114.81-51.508-114.81-114.82 0-63.307 51.503-114.81 114.81-114.81 63.312 0 114.82 51.503 114.82 114.81 0 32.94-14.179 64.331-38.9 86.124-3.106 2.739-3.405 7.479-.666 10.585s7.479 3.406 10.586.667c27.95-24.639 43.98-60.131 43.98-97.376 0-71.578-58.237-129.81-129.82-129.81zm-114.762 190.423-6.058 10.499c-2.07 3.588-.84 8.174 2.748 10.244 1.181.682 2.47 1.005 3.741 1.005 2.593 0 5.114-1.346 6.503-3.753l2.012-3.488c8.446 11.865 18.836 22.255 30.7 30.702l-3.486 2.011c-3.588 2.07-4.818 6.657-2.748 10.245 1.389 2.407 3.91 3.753 6.503 3.753 1.271 0 2.561-.324 3.741-1.005l10.497-6.056c11.555 6.127 24.137 10.566 37.419 12.972 2.204 7.906 3.771 16.036 4.651 24.251.586 5.308.884 10.777.884 16.256 0 5.472-.298 10.938-.887 16.27-3.639 33.934-18.989 65.969-43.223 90.206s-56.268 39.588-90.211 43.229c-10.687 1.161-21.817 1.164-32.539-.001-33.933-3.639-65.969-18.991-90.205-43.228-24.237-24.237-39.589-56.272-43.229-90.215-.581-5.352-.876-10.822-.876-16.26 0-5.445.295-10.918.877-16.28 3.639-33.932 18.991-65.966 43.228-90.2 24.236-24.233 56.272-39.583 90.23-43.225 10.506-1.161 21.985-1.163 32.526.003 8.192.877 16.32 2.444 24.231 4.649 2.407 13.281 6.845 25.861 12.971 37.416z"/><path d="m459.93 151.34c0-4.142-3.357-7.5-7.5-7.5h-5.273c.151-24.803.253-53.245-.049-56.86-.537-6.443-4.297-11.664-9.579-13.3-2.491-.772-8.942-1.754-15.043 5.732-5.644 6.924-33.977 58.113-39.6 68.305-1.281 2.323-1.24 5.151.109 7.436s3.805 3.687 6.458 3.687h42.603c-.056 7.81-.115 15.346-.173 22.035-.035 4.142 3.293 7.528 7.436 7.564h.065c4.112 0 7.463-3.315 7.499-7.436.022-2.618.095-11.185.173-22.164h5.374c4.142.001 7.5-3.357 7.5-7.499zm-27.776-7.5h-29.968c10.967-19.692 24.62-43.767 30.065-52.252.112 8.36.038 29.977-.097 52.252z"/><path d="m345.453 125.702c-15.93 22.761-25.441 35.215-30.551 41.905-6.101 7.989-7.942 10.4-6.589 14.799.767 2.493 2.668 4.41 5.216 5.259 1.003.334 2.368.791 21.515.791 7.558 0 17.89-.071 32.058-.249 4.142-.052 7.457-3.452 7.404-7.594-.051-4.142-3.438-7.471-7.594-7.405-13.375.168-27.711.257-37.586.221 5.563-7.319 14.612-19.404 28.416-39.126 6.125-8.75 10.103-16.953 11.824-24.379.057-.245.101-.493.133-.742l.496-3.879c.04-.315.061-.633.061-.951 0-18.285-14.876-33.162-33.161-33.162-15.812 0-29.496 11.247-32.54 26.742-.799 4.064 1.85 8.007 5.914 8.805 4.067.798 8.007-1.849 8.805-5.914 1.666-8.479 9.16-14.634 17.821-14.634 9.868 0 17.923 7.911 18.156 17.725l-.38 2.97c-1.337 5.468-4.504 11.797-9.418 18.818z"/></g></svg>